<mxfile host="Electron" modified="2023-06-03T16:46:02.056Z" agent="Mozilla/5.0 (Windows NT 10.0; Win64; x64) AppleWebKit/537.36 (KHTML, like Gecko) draw.io/21.2.8 Chrome/112.0.5615.165 Electron/24.2.0 Safari/537.36" etag="7Y62TnvZDVOYHELLQAZi" version="21.2.8" type="device">
  <diagram id="dX7Dphyso45SB9-RoEhv" name="Page-1">
    <mxGraphModel dx="1418" dy="828" grid="1" gridSize="10" guides="1" tooltips="1" connect="1" arrows="1" fold="1" page="1" pageScale="1" pageWidth="827" pageHeight="1169" math="0" shadow="0">
      <root>
        <mxCell id="0" />
        <mxCell id="1" parent="0" />
        <mxCell id="nfxZPmU7g6QgWNAvG-ER-2" value="" style="whiteSpace=wrap;html=1;aspect=fixed;strokeWidth=5;fontFamily=xkcd;fillColor=#FFFFFF;strokeColor=#FFFFFF;" parent="1" vertex="1">
          <mxGeometry x="210" y="80" width="600" height="600" as="geometry" />
        </mxCell>
        <mxCell id="8b6ggLF4gSHIukh4vJdm-18" value="&lt;font&gt;&lt;font color=&quot;#000000&quot;&gt;&lt;span style=&quot;font-size: 24px;&quot;&gt;&lt;b&gt;Crafting digital marvels&lt;/b&gt;&lt;/span&gt;&lt;/font&gt;&lt;br&gt;&lt;/font&gt;" style="text;html=1;strokeColor=none;fillColor=none;align=center;verticalAlign=middle;whiteSpace=wrap;rounded=0;fontFamily=xkcd;" parent="1" vertex="1">
          <mxGeometry x="225" y="120" width="570" height="22" as="geometry" />
        </mxCell>
        <mxCell id="8b6ggLF4gSHIukh4vJdm-24" value="&lt;font&gt;&lt;font color=&quot;#000000&quot;&gt;&lt;span style=&quot;font-size: 18px;&quot;&gt;&lt;b&gt;Innovation, excellence, and beyond&amp;nbsp;&lt;/b&gt;&lt;/span&gt;&lt;/font&gt;&lt;br&gt;&lt;/font&gt;" style="text;html=1;strokeColor=none;fillColor=none;align=center;verticalAlign=middle;whiteSpace=wrap;rounded=0;fontFamily=xkcd;" parent="1" vertex="1">
          <mxGeometry x="210" y="150" width="600" height="20" as="geometry" />
        </mxCell>
        <mxCell id="8b6ggLF4gSHIukh4vJdm-30" value="" style="endArrow=none;dashed=1;html=1;strokeWidth=2;strokeColor=#000000;" parent="1" edge="1">
          <mxGeometry width="50" height="50" relative="1" as="geometry">
            <mxPoint x="797.5" y="190" as="sourcePoint" />
            <mxPoint x="222.5" y="190" as="targetPoint" />
          </mxGeometry>
        </mxCell>
        <mxCell id="k-dpR7HA_-HZ3Fbqk2lw-16" value="" style="endArrow=none;dashed=1;html=1;strokeWidth=2;strokeColor=#000000;" parent="1" edge="1">
          <mxGeometry width="50" height="50" relative="1" as="geometry">
            <mxPoint x="800" y="584" as="sourcePoint" />
            <mxPoint x="225" y="584" as="targetPoint" />
          </mxGeometry>
        </mxCell>
        <mxCell id="k-dpR7HA_-HZ3Fbqk2lw-17" value="&lt;font style=&quot;&quot;&gt;&lt;font style=&quot;&quot; color=&quot;#000000&quot;&gt;&lt;b style=&quot;&quot;&gt;&lt;span style=&quot;font-size: 18px;&quot;&gt;Side note&lt;/span&gt;&lt;br&gt;&lt;/b&gt;&lt;/font&gt;&lt;b&gt;&lt;font style=&quot;font-size: 14px;&quot; color=&quot;#000000&quot;&gt;witness the alchemy of our process as we transform ideas into digital marvels. prepare to be amazed&lt;/font&gt;&lt;/b&gt;&lt;br&gt;&lt;/font&gt;" style="text;html=1;strokeColor=none;fillColor=none;align=center;verticalAlign=middle;whiteSpace=wrap;rounded=0;fontFamily=xkcd;" parent="1" vertex="1">
          <mxGeometry x="210" y="585" width="600" height="80" as="geometry" />
        </mxCell>
        <mxCell id="euaHSMH8fYii958cPEId-22" style="edgeStyle=orthogonalEdgeStyle;rounded=0;orthogonalLoop=1;jettySize=auto;html=1;exitX=0.5;exitY=1;exitDx=0;exitDy=0;strokeWidth=2;" parent="1" edge="1">
          <mxGeometry relative="1" as="geometry">
            <mxPoint x="661" y="451" as="sourcePoint" />
            <mxPoint x="661" y="451" as="targetPoint" />
          </mxGeometry>
        </mxCell>
        <mxCell id="pKVuHFSoDqtFi99w7tCS-15" value="&lt;font style=&quot;&quot;&gt;&lt;b&gt;&lt;font color=&quot;#000000&quot; style=&quot;font-size: 14px;&quot;&gt;Â©2023 All rights begrudgingly reserved. Unauthorized attempts to mimic our magic will result in a labyrinth of spaghetti code.&lt;/font&gt;&lt;/b&gt;&lt;br&gt;&lt;/font&gt;" style="text;html=1;strokeColor=none;fillColor=none;align=center;verticalAlign=middle;whiteSpace=wrap;rounded=0;rotation=-90;fontFamily=xkcd;" parent="1" vertex="1">
          <mxGeometry x="600" y="380" width="360" height="20" as="geometry" />
        </mxCell>
        <mxCell id="ESBs4Za4Zb-xoG1EwR6T-1" style="edgeStyle=orthogonalEdgeStyle;rounded=0;orthogonalLoop=1;jettySize=auto;html=1;exitX=0.75;exitY=0;exitDx=0;exitDy=0;entryX=0.775;entryY=-0.05;entryDx=0;entryDy=0;entryPerimeter=0;" parent="1" source="pKVuHFSoDqtFi99w7tCS-15" target="pKVuHFSoDqtFi99w7tCS-15" edge="1">
          <mxGeometry relative="1" as="geometry" />
        </mxCell>
        <mxCell id="ESBs4Za4Zb-xoG1EwR6T-2" value="" style="group" parent="1" vertex="1" connectable="0">
          <mxGeometry x="280" y="400" width="90" height="185" as="geometry" />
        </mxCell>
        <mxCell id="_axvJHcLCZw86LOWZs9C-15" value="" style="endArrow=none;html=1;strokeColor=#000000;strokeWidth=5;" parent="ESBs4Za4Zb-xoG1EwR6T-2" edge="1">
          <mxGeometry width="50" height="50" relative="1" as="geometry">
            <mxPoint x="40" y="115" as="sourcePoint" />
            <mxPoint x="10" y="185" as="targetPoint" />
          </mxGeometry>
        </mxCell>
        <mxCell id="_axvJHcLCZw86LOWZs9C-12" value="" style="ellipse;whiteSpace=wrap;html=1;aspect=fixed;strokeColor=#000000;strokeWidth=5;fillColor=#000000;" parent="ESBs4Za4Zb-xoG1EwR6T-2" vertex="1">
          <mxGeometry x="20" width="45" height="45" as="geometry" />
        </mxCell>
        <mxCell id="_axvJHcLCZw86LOWZs9C-14" value="" style="endArrow=none;html=1;strokeColor=#000000;strokeWidth=5;" parent="ESBs4Za4Zb-xoG1EwR6T-2" edge="1">
          <mxGeometry width="50" height="50" relative="1" as="geometry">
            <mxPoint x="40" y="40" as="sourcePoint" />
            <mxPoint x="80" y="185" as="targetPoint" />
            <Array as="points">
              <mxPoint x="40" y="120" />
            </Array>
          </mxGeometry>
        </mxCell>
        <mxCell id="XPkvTnyPhjwyQLm19Fli-1" value="" style="endArrow=none;html=1;strokeColor=#000000;strokeWidth=5;entryX=0.406;entryY=1.032;entryDx=0;entryDy=0;entryPerimeter=0;" parent="ESBs4Za4Zb-xoG1EwR6T-2" edge="1">
          <mxGeometry width="50" height="50" relative="1" as="geometry">
            <mxPoint x="-10" y="89" as="sourcePoint" />
            <mxPoint x="42" y="45" as="targetPoint" />
            <Array as="points">
              <mxPoint x="-10" y="89" />
            </Array>
          </mxGeometry>
        </mxCell>
        <mxCell id="ESBs4Za4Zb-xoG1EwR6T-7" value="" style="group;flipH=1;" parent="1" vertex="1" connectable="0">
          <mxGeometry x="600" y="400" width="90" height="185" as="geometry" />
        </mxCell>
        <mxCell id="ESBs4Za4Zb-xoG1EwR6T-8" value="" style="endArrow=none;html=1;strokeColor=#000000;strokeWidth=5;" parent="ESBs4Za4Zb-xoG1EwR6T-7" edge="1">
          <mxGeometry width="50" height="50" relative="1" as="geometry">
            <mxPoint y="80" as="sourcePoint" />
            <mxPoint x="50" y="47.5" as="targetPoint" />
            <Array as="points">
              <mxPoint x="-10" y="80" />
              <mxPoint x="10" y="80" />
            </Array>
          </mxGeometry>
        </mxCell>
        <mxCell id="ESBs4Za4Zb-xoG1EwR6T-9" value="" style="endArrow=none;html=1;strokeColor=#000000;strokeWidth=5;" parent="ESBs4Za4Zb-xoG1EwR6T-7" edge="1">
          <mxGeometry width="50" height="50" relative="1" as="geometry">
            <mxPoint x="50" y="115" as="sourcePoint" />
            <mxPoint x="80" y="185" as="targetPoint" />
          </mxGeometry>
        </mxCell>
        <mxCell id="ESBs4Za4Zb-xoG1EwR6T-11" value="" style="ellipse;whiteSpace=wrap;html=1;aspect=fixed;strokeColor=#000000;strokeWidth=5;fillColor=#000000;" parent="ESBs4Za4Zb-xoG1EwR6T-7" vertex="1">
          <mxGeometry x="25" width="45" height="45" as="geometry" />
        </mxCell>
        <mxCell id="ESBs4Za4Zb-xoG1EwR6T-12" value="" style="endArrow=none;html=1;strokeColor=#000000;strokeWidth=5;" parent="ESBs4Za4Zb-xoG1EwR6T-7" edge="1">
          <mxGeometry width="50" height="50" relative="1" as="geometry">
            <mxPoint x="50" y="40" as="sourcePoint" />
            <mxPoint x="10" y="185" as="targetPoint" />
            <Array as="points">
              <mxPoint x="50" y="120" />
            </Array>
          </mxGeometry>
        </mxCell>
        <mxCell id="XPkvTnyPhjwyQLm19Fli-7" value="" style="endArrow=none;html=1;strokeColor=#000000;strokeWidth=5;entryX=0.406;entryY=1.032;entryDx=0;entryDy=0;entryPerimeter=0;" parent="ESBs4Za4Zb-xoG1EwR6T-7" edge="1">
          <mxGeometry width="50" height="50" relative="1" as="geometry">
            <mxPoint x="102" y="94" as="sourcePoint" />
            <mxPoint x="50" y="50" as="targetPoint" />
            <Array as="points">
              <mxPoint x="102" y="94" />
            </Array>
          </mxGeometry>
        </mxCell>
        <mxCell id="ESBs4Za4Zb-xoG1EwR6T-14" value="&lt;font face=&quot;Comic Sans MS&quot; color=&quot;#333333&quot;&gt;&lt;span style=&quot;font-size: 14px;&quot;&gt;&lt;b&gt;What propels us forward?&lt;/b&gt;&lt;/span&gt;&lt;/font&gt;" style="whiteSpace=wrap;html=1;shape=mxgraph.basic.oval_callout;fillColor=#FFF4C3;spacingLeft=11;spacingRight=10;spacingBottom=2;strokeColor=#000000;gradientColor=none;gradientDirection=north;" parent="1" vertex="1">
          <mxGeometry x="310" y="250" width="270" height="80" as="geometry" />
        </mxCell>
        <mxCell id="ESBs4Za4Zb-xoG1EwR6T-15" value="&lt;font face=&quot;Comic Sans MS&quot; color=&quot;#333333&quot;&gt;&lt;span style=&quot;font-size: 14px;&quot;&gt;&lt;b&gt;Our passion fuels our drive for excellence.&lt;/b&gt;&lt;/span&gt;&lt;/font&gt;" style="whiteSpace=wrap;html=1;shape=mxgraph.basic.oval_callout;flipH=1;strokeColor=#000000;fillColor=#EA6B66;spacingLeft=17;spacingRight=17;spacingBottom=5;gradientColor=none;" parent="1" vertex="1">
          <mxGeometry x="390" y="313.75" width="270" height="80" as="geometry" />
        </mxCell>
        <mxCell id="_axvJHcLCZw86LOWZs9C-16" value="" style="endArrow=none;html=1;strokeColor=#000000;strokeWidth=5;entryX=0.406;entryY=1.032;entryDx=0;entryDy=0;entryPerimeter=0;exitX=0.482;exitY=0.568;exitDx=0;exitDy=0;exitPerimeter=0;" parent="1" target="_axvJHcLCZw86LOWZs9C-12" edge="1">
          <mxGeometry width="50" height="50" relative="1" as="geometry">
            <mxPoint x="380.01704241550146" y="460.01733591996003" as="sourcePoint" />
            <mxPoint x="360" y="440" as="targetPoint" />
            <Array as="points">
              <mxPoint x="340" y="480" />
            </Array>
          </mxGeometry>
        </mxCell>
        <mxCell id="upiH7xowOFizbXPELO3x-1" value="" style="shape=image;imageAspect=0;aspect=fixed;verticalLabelPosition=bottom;verticalAlign=top;image=data:image/png,iVBORw0KGgoAAAANSUhEUgAAAlgAAANoCAYAAAAca5TFAAAACXBIWXMAAAsTAAALEwEAmpwYAAAAGXRFWHRTb2Z0d2FyZQBBZG9iZSBJbWFnZVJlYWR5ccllPAAAdJpJREFUeNrs3XlwHOeZ5/m37sJBHBQPUSIpiDp9yIIljy23D8HHuO12tEV7umObmo4RFXP07Eb0it7Z3oj5Y4NSRPfuxk73UOqZXbft6aEc3gbclyk5wrJbbUmwLFuSWzdtSZRECgRAkeABoAqoQt3YehIosgCijsx6Mysz6/tRlEASVQXgRR2/fN8nn1cpAAAAAAAAAAAAAAAAAAAAAAAAAAAAAAAAAIBfTE5ND4yOjY0wEgC8IMgQAPBAuDoQfvqZd6NvH3+qHLIOlS8DjAoANwswBABcHKwkSB2Ofnd0b/mifhmPqtwN16nUl74wsRyP33v3vn3jjBIAAhYANB+uRgKLi0fiD/zJQOjVo8a/vRmNqGQwoJZjMbX4ta+o/K6dD5RD1v2MFgACFgA0Dlf3B4+fONh1/5+owMzMxX+vBKyKpU98vHy5Y7z8x6+Wg9Y8IweAgAUAlwcrWRI8Enn8iZHoX3xLBRZTaz6/PmCJqiVDCVmvMIoACFgAcClcDUu4in3j20ORI49ueJ2NApYo9fepha9+RRW3bZW6rIcZTQAELACEq6npvYHFxcOxP31wIPyL52per1bAElKXlfqt35QZrQfLIevrjCoAAhaATg5XBwKLqUNdf/QfVfD4ibrXrRewKiRkZT/4/kfKf7yXuiwABCwAnRiuDpdD1X4JV+vrrawGLFEOWBK0pB7rM4QsAAQsAJ0SrIxi9tBrR0fi9/9xU+HKTMCqhKz0Z++cX47HP0PxOwACFoBOCFdPRR5/Yjj2p4dM3dZMwBLFbVtV8vd+h5AFwHFslQPAyXA1bDVciU2lkqnrh86eU33f+7uBQCYjW+zs5zcAwCnMYAFwNFzFvvHtgVptGBo5FQ4ZF7NkJkvaOJT6+2jjAICABcBf4SoubRge/4m1O4lG1IW+XnW8yXqt9aSNQ3Lf79IrC4AjWCIE4PpwFRjsU4Grt6tMJmv9aDKbVX1jfyvLhodZLgRAwALQueEqGFSBHVuVGuhTajGtVAsBi5AFgIAFwA/han9L4SoeU4FdVxofVamkli/oaWdFyAJAwALg5XB12Gq4MpYEZeYquPIStXxuzghZuhCyABCwAHgtXA2vhitlOlzJkuD2K1aWBCvSSysXzQhZAAhYALwUrp6yFK6ikZVZq+6uS/9mLA0mLv41pPn7rYSs8kdCFgACFgBXhyvzy4JSbyXhqhyyqi3PJZUqFC7+vae0rP37JmQBIGAB8F+46u1ZU291kZwxmFx05Ps3Or4TsgAQsAD4IVwFrhhQga2DG37OKGx30LqQtZffLAACFoB2hSvZuPmIpXC1dbNSfb0bf3J+7dKgkyGr57F/kD9KyBrmNwyAgAWgHeHqqciRR4dMhavKmYK93Rt/Ppdfqb1qk+jbxyVkGT8bIQsAAQuA8+Hq8SeGY9/4trlwtf5MwXV0NRRtRexXr6uunz9XCVkD/MYBELAAOOGQEa7+9JD5cLXuTME1pKi9xe1wdOn6+bMStAhZAAhYAOw3OTV9OHj8xP7oX3xLb7gqFNu6NLgRqceKrBbx85sHQMACYFe42i/hquuP/qMKLKb0hSslZw3ONtwOJ6SWHf+Ze7//Ayl+Hx4dGzvMIwAAAQuA7nC1txyqDnfd/yfaw5WxFU4TS4PdJecDljQi3XTkB/Jxfzlk3c8jAQABC4CucDUcWFw8bMxczczoDVeyHY7DPa9Mv1AmkpUeWQdpRAqAgAVAR7gyCr1jf/rgQPD4Cb3hSq02FG2wNOgG0iOr+4lx+eMh2jcAIGABaD1cfePbA+FfPKc9XBnLgrI86BG0bwBAwAKgg9GOIXLkUf3hygNLgxuR9g3Rt48TsgAQsACYNzk1fSD02tH9Tfe6MhOuyoyWDG3YDkcHad8gZxZKAOWRAoCABaDZcLU3OHP2UPz+P276NmbClbE0KE1FPUrOLOwth6zVMwsP8IgBQMAC0ChcDckZgxKumm3HYGzc3Gy4Uu7YDqdVVRtDS9H7CI8cAAQsALXCldQUHTFzxqARrmpt3LyR+aSxobPlYOOi8ZKNobt+bhT/HymHrCEeQQAIWAA2cij63dHhZs8YDAz2mQtXGrbD6WlDs9F6pOg9shpMefgAIGABWEOK2svBan85YDV3g94epQb6TH0NYzscH5LtdIKJJNvpACBgAVgTroalqL3pMwbjMRXYOmjui0hRexPb4XhRZTudsv10egdAwAJg1F0FFhaONF3UHo2owPYrzH0RDUuDbmd0en9yXP5Ip3cABCwA6nDsm3851FRRu/S62r7F+GiGcdagB7bDaVX8hZcrTUgP04QUIGAB6FBSdxV5/Im94cd/0ly4kl5XYZPn8clWOB7aDqdV0rpB6rEUTUgBAhaAjgxXw8HjJw5F/+JbTV0/cMWAqV5XBo9uh9MK6rEAELCAzg1XRt1V1/1/0lzdVV+vuXYMq5YvJDpiaXC9dfVYQzziAAIWgM5wOPZnDw0FZmYaX7O7a2X2yiw5Y7DJTvB+JPVY9McCCFgAOsTk1PR+o+6qmWaicsag2XYMwsalwU0emhGT/liBbFb6Y1GPBRCwAPg4XA0F336nuborKWqXbXCCFl4mpOdVodDx411Vj3WA/QoBAhYAv77hJ5NH4v/5zweaqbsyZq7MFrWLXN73Pa/MCE9OG8uFitYNAAELgP9MTk3fH/2rvx5upt+Vscdgd5elr+PX7XBaIfsVhs6eG5KQxWgABCwA/glXsoHzwciRRxtfOR4zvcfgRfNJYwYL6wJrNqt6H/sH+ePe0bGxvYwIQMAC4P1wNRBIJg83tc+g0an9CmtfSLbDSSwy4DVI64aunxsnFrBUCBCwAPjAwdh//vPhpuqupFN70NrLgrE02IE9r8yQpUJaNwAELAAeNzk1PRI58uiBZloyWOrUXiFnDUrfKzQkW+kEstmR0bGxA4wGQMAC4L1wNRA89d7h6HdHG19Z6q6kW7sV0vOKswabf9FNJI2ZrLKDdHkHCFgAvOdg7MH/MtRwabCVuiulVhqKOrg02L287PlfTFWXd84qBAhYALxClgaj3x09EHr1aMPrGuHKYt2VSi+tXBwUXvbH74ilQoCABcBb4Wog9OaxppYGjX5XsjxohY3b4XTEiy9LhQABC4CnHIg99P80fsOWgnar/a7KjLorzhpsSdVSIXsVAgQsAG4lDUWj3x092LBbu1F3tcX6F5IzBpP0vNJhdamQBqQAAQuAW4V+/XrzS4PhkOWvw9KgxhfhRJK9CgECFgC3mpyaPhB9+LvDDa8oewxabckgZDucQoEB12h1r0IJVwcZDYCABcA94Woo+td/d7DhWYOyNLh10PoXyuXpeWWT1b0KD4yOjY0wGgABC4Abnsgn3j0U+eu/bbi8ZISroPWnvbEdDmxRtVchBe8AAQtAu01OTe+NfeNbexs2FJWlQblYJUXtuXzbf97o8rJvf5fxF16Smqzh0bGx+3lkAwQsAO0LVwPhJ8cP2b40WCi6Zmkw5uOAFchmVe+PjKXC++iNBRCwALTrCTxz9kDsv36j4RuxlqVBel45Ijw5raJvH6c3FkDAAtAOUtge+f6jB21fGlxMr/S9gmMqvbH++m/+ht5YAAELgJPCTz9zOHLk0QbP8BaXBmU7nAvzDLbDZKlQWjcUi8VDP/zhY/TGAghYAJwghe3Rsb8ZafhG3fLS4BxLg20izUdDZ88NJZIJNoMGCFgAHAhXA9Hvjh5quB1Oq0uDsiyYXmLA26jnyXH5QME7QMACYPuTdubsgciRR+u/4crS4BUtrCzJ0iDb4bSdFLzHfvU6Be8AAQuAnYyO7d/+7/c1Kmxvea/BObbDcYvuJ8Yrm0GPMBoAAQuADcI/eepQ+Oln6k9NxWOt7TUoS4PSVNTFQh30O68UvCtmsQACFgD9JqemR6J/f6ThafstLQ2WeeGswZ7Sckf97lcL3qXD+36eCQABC4BG0f92uGFhu7E0GI1Y/yLzSVdsh4MNQuVKwfuhcsiibQNAwAKgw/Qzv9gfeezHw3WvFA63tjRYDlZu2Q4HG/x6LxW807YBIGABaJXRlmHsbxp2bA9c0d9azysairqe1GIFstmDtG0ACFgAWhR67eiB8JPj9d9QpbC9lZ5XUtTOdjjuf8FOJI16rLKDjAZAwAJgkcxexb75l/c1ul5g62brX6RQZGnQQ+IvvCRBaz9tGwACFgCLIo/9+FDw7XfqFjW33PPq3Czb4XhIVdsGZrEAAhYAs4ymomN/u7/ulVotbJetcFga9JzYr15XkanpEWaxAAIWALNvog/+14OBmZm61zFmr6wWtrMdjqetzmIdZiQAdwowBID7nPrhj0bi/+nBp+oGrHhMBXZsbZyjuuIqu2ePyu/YcenN+fXXVfjV15VqcGaiW01GQupMyBv93HO9PSq582pVikaNv0dSKRU8c0b1p1rfSHvxq19RuRuuu/fuffse5lkDuEuYIQDcJ/KDHzY3e9VA8vOfU4uf/IQqxeNr/v3cpz6pSo/9g7r+e3/nyfEJeaSR+9x116rpj3904xffySl1xcuvqm0L1kNu95PjErCkFouABbgMS4SAy8jsVeill0fqXqm3Z6U1Qw0yazVz3x8aAWt9uCqVSurC7Jw695Hb1M/+9b9iwNsQrkRh9y41+cV/rl4b2mn9BXylbcMQW+gABCwADUS/O1q/qWgwWHf2SsLVuX/3b9csCVZLJJOqUCgYfw6/72b1yu23MuiaFaMRdfr2Dze8XiwWU6WP36Fe2LPb8tcymo9mMmyhAxCwANRy5v/4v0dCrx4dqXedQH9v3bYM9cJVLp9XCwuLa/5t8o6Pqkw4xOBrNLfnWiNkNSMUCqnwxz6q/qmJeroNHw/ZrIq/+Apb6AAELAA132xfeuVQ3Ss0aMsgS4K1wpWYvTB72b8N7NypTvT3MfgapbZvM/d7L4es3Ec/ok53xy19PaP56HziPmaxAAIWgHXe+6vv7Q/9+vW6GzrXa8tQHBw0AlYtsjQoM1jrRSIRdVpquqBNs7NX1fo29amjN99g6esZzUd/8RyzWAABC8BlQecf/rF+Z26ZvertrvnpeuGqUCiqRILtcJxidgarYvN116m3LTaOleajzGIBBCwAVYzZq396cajedQJbB2t+Tgrblz7w/pqfn52dZZAdFJ+btxaSYjF14uorLX9dZrEAAhaAKg1nr6QlQ522DJn3v/+ydgwVUtSeyfprOxy3l+SHcjnrL8pXX60WI9ZaFBpb6JycZBYLIGABaGr2qkFT0dxVGxe2S88rqb2qJ5FIqAGP7UfYU3J3p9EuizNYoq+vT03UWQpu+LWffZ5ZLICABaDh7FV3V93ZK5HfcdWG/y4NRSVk1XPhwnm1h/osvQFw5qzl23Z3d6vFsPVNNsKT08xiAS7AVjlAGxmzV3/8fw3Vu07gisbvk1KDtd7S0pJxaaTwxjE16OIZrOR1e8qXa9f8W/HUKVWcmlKhXN6V33Pf1Cnje7NyNqEReuPRlr6+zGLlr9kts1j38ywDCFhAx4kc+cF9da8g7ROaaAIqLRrWBK7V7XAavpFfOK+uf+sdV47N9Bc+p05/6hOqsEF4TKfTamLypBo88a664qVXVZcLA6J8b+dvvrE9L+yXZrEevHvfvnmeaYDzWCIE2sTo2t5M36tmgtp7p9f8XequGi0NipO//rW6feacq8YlddUO9dr/8odqqhywJFxFIxHV399nXILreoBJx/R3v/JlNbl7p+t+v9te+1VbZ9ioxQIIWEBHCj/9TP3aqyZnr4wncubSUmA2m71sO5wNA96Z0+qO519S8ULRNWOS3TyoXv8f/60RsiRYbd+2VV155XbV39dn9PLaKDTKMlzi059QL9+wx1W/XwlXErJMj0H597cjnWn98TU5raLH3qIWCyBgAZ1DZq+CJydH6l2n2dkr0fXr142PzS4NyhJb9idPum726tj+3784a7WtHK6kL5SQnymVStW9beAjt6m3t2911c+z5c23jHosM5ILSXVFNqfl63eP/0zC1V6ecQABC+gIgURC2+yViL/+ugpmMmphcVEVCoW6183n82r6qXG191dvumpMzv2z24yZq3A4bISrynJgM+FKyH5+Zz/0Acs9pOyy89nnTTUezZw+o65ZTOt5gU8kZSPogzzjAAIW4HuTU9Mjuf3/aqTwhc/XDmCD5jZfDi5lVP9fjTXcDkd6Xr31w8fU//CzZ121NCik5kpcsXnQdLiq6Nu+Xf3qqu2u+rlkqXDPPz7Z1EzWmTNn1IffPqHta+duuE5lP/i+odGxsf088wACFuB39yz39qjM/3pALf3p/6mKt96y9rMmZ68qusefUdf8f2MqvHR5/Y7MWh07dkwVRr+nfv+5F1wXrmTmKjs4aMxeNbMsGKvTFyy582rX/cIlZF3z02fUzmd/qaI1fqZzU1Nq6Jcvaqm/Wi6PYfqzI2rxq18x/lzGLBbgsABDADhncmp6qPzh3fX/Hv7Fcyr2jW+rwMyMCuzaYT5gzSfV8tzK7NXipl71ym23qtL2beq9nm4VPTlpXD5x6oxr+11JO4aJu76senp6jBmsZmauXn/zjY2Dyvlz6tanntFWx2SHzOCAWiz/fkrRqFHUnpmfV9ecu6CiTZz52Uhh9061+KXfVKX+y2ZBv3r3vn2P8CwEnEEfLMBZG84kFH7jDuMSf/pnKvL44+WUYKL4vFBUy4lLZw32LiyqT/70554alOJqr6twOViaXRZcT2bAciF3T85LTVZ8Tm97KglUMmsly4I1SM81AhbgEJYIAYdMTk3LGV376x7xfOmLKvDQIRX493+g1NbmzohbPjcrpw/6YoykvUQr4apTLX3i4yqx//frhSsxMjo2NsJoAc5gBgtwTt2mj5FIRAWDq6v2n/6UCpQv6umfqeWnn1bq9Y2Xw5ScbeaxjZo3ElqtGytpCIqy5NYpsh98vxGuNlgOrEVmscZ5KgL2owYLcMDq7JXUXtVs+tjb03MpYK33xhtq+Uc/VuqFFy/9WzmMLE+d8cXsVaV7uxm1arBOTp5UI8++oHrzBd8+nqTOKvXZEVXcZqnv17V379s3wbMSsBczWIAz9tYLV2tmrzbyvvepQPmizp1Xyz8uB62fPq2W353yzdJgz3unVWxuzjiTsFX5s+d8G64kWMmMVX5XS1sDSR3gvTwlAXsxgwU4YHJqWmavhmp9vu7s1UZvtMmkyv/jUypy5FEVPH7CF2MkmztXemE1Y6MZLDmDcNcvfqluSC766vEjS4G5Wz7QarCqkOr6a9kEGrAXM1iA/eFqb71wJb2fzISr5eVllQmFVakcRvLliwSs6JEfqNAvnlWBRe8WiO98/Ak1Ww4SslxoRbFYVImJk+qzPglX0r9KitZN1lg1o7IJ9P08OwH7MIMF2B+wnip/GKn1+Z7uLmObl2ZlslmVy+U3/FykHFIkaElfLS+ScCWbPRdW2zbUs34Ga+LYm+o3XnvD1f2vmiFhKnP7bSp7y/srTULtMHH3vn3X8uwECFiAV8PVkNqgsWhFuBysussBq1kyS5NKLzW8XnDmrBG0JHB5bQlRQtbx3/udhjNZUsyeSqeNMZl6523PhyvNy4DNuLccsh7mWQoQsAAvBqzDqk7vK7OzV4uptOlWBl4MWzKDdeZTnzA6vNeazZKANVG+5N48pj55asaThe1yFmDmI7cZS4E2zlbV8ko5YH2YZylAwAK8Fq7qtmaQDY17e7qbvr9sLqeyLc7QVMJW6NWjnlhGzIRD6tTwh9SF3TtVYutWNRePqnR6SV15+ox679gxtePsec/NWkmoyn7wA0ao0lxbZcVnyiFrnGcrQMACvBSwpJD4UK3Pd8XjKhJp7jyTYqmkUqm03if/YkqFXlsJWhK4ZB9EL3kzGlHJoDdewlwWqqo9XA5YtGwACFiApwJWzdYMZmevZNamUCza+v1Wz25J8HL7GYluDliy3JffvVPlb7i+Xct/ZtB4FLABbRoAe8JV3dYMzc5cCTlj0O5wJUrbt6nSV+9S+fLFCFzHTxhBywhcx9/13AxXOwJVYdcu46PFDuvtsl/RsgEgYAEecV+tTwQCARWNRJoLPaVlo/aqHUrX7TEuFwPXzFkjdFWCl3z0ct+tlsamv88426+4bZsXA9V69xCwAP1YIgQ0a9SaQbbF6Yo3t2TkxNJgK6pDl3FZ/bsTnFoilPBUKF9K/f3GVjXyZ5cv+VlBywZAM2awAP3uq/fJWDTa1J0UCgVXhythLCuWL+o37rgseMmSoiwvCpnxMj6u/t1tJEQtl0PvSniKG0GqVA5RHp+ZMkNmsQhYgEbMYAEaNWrNINvidDfRpVy2w5GeV/LRj4zlxVTKWGKsnvGqBLGLL1DrPl/t7WhYzQWDl4+dBKPta4NRsa/PmIEyQmF/38Uz+Rxs6ukFFLsDGjGDBei1t1a4ErFoc7VXS5msb8OVEXKu23PpL+tmv5qVn5xUs5MnecTpIzOvX2cYAE0HkgwBoP1NauMnWzDYVNd22fpFlgcBh+0fHRsbYBgAAhbgKpNT08PlD8O1Pt9M7ZXMWsnsFdAGEq72MgwAAQtwm7qtGcLhxrNX0pLB7F6DgBOPYQAELMBxq8XtNY/+pbGohKx6ZDscaSoKtNHw6NjYMMMAELAAt6hb3B6NNF4ezCxlGEW4AbNYAAELcI17an1CWjMEGzTElKXBIkuDcM/BAgACFtBeq53bR2p9Ptpg30FjO5xsjoGEWwyMjo3tZxgAAhbQbnVbM8gMVj2ZDEuDcJ17GAKAgAW0W82j/UiD2Sspanf7djhuFY/HGAT7jIyOjQ0xDAABC2iLyanpusXtkXDtzu3G0mCOpUGrYrE4g9CmAwcABCzAbpaL2zNZf2+HA/8+tgEQsADbNOp9VW/fQdkKh+1w4HJDo2NjnFEIELAAx+2v+cSqs+8g2+HAQ+5iCAACFuC0mkso9YrbM9kcS4PwzEEEG0ADBCzAMY02dq5V3F4sFlU+z3Y48BSWCQECFuAY08XtLA3Cb491AAQswLGj+lqd23P5vCqxHQ68h55YAAELsN9q76sN33ACgcCGndtln0G2w4EfDygAELAAXWqeWVWruD2zxHY4utHJ3VH3MQQAAQto29F8JHJ5cbt0ay+yNKgdndwdJT2xhhkGgIAF2GJyanq/qrE1Tkh6XwXXPqVkOxzZbxDwAYrdAQIWYJs6y4OXz15lMhl6XsEvqMMCCFiAfo22xllffyUzV4VikYGDX7B1DkDAApw9gpczB+UMwgqZtZLaK8Bn2DoHIGABzr25rO99JQ1FWRpEJx1kACBgAaZNTk0P1XpzWd/7qlAoGBfAhwZYJgQIWIAjR+7V4UpmrTI0FIW/sUwIELAAbWqeol69PCh1V2yHg0492ABAwAKatro8uGGTxaD0vgqFjD8Xi0V6XjksHqfZaBuwTAgQsAB7j9jD4dDFP0thO5wVi7FdTpuwTAgQsICW1VwerDQXZWkQHHQAIGABTWq4PFi+yD6DWQrb0VlYJgQIWIA9R+rR1dmrzFKGUUInYpkQIGAB+t9EpD2DFLUXWRoEBx8ACFhAc1b3HhzZ6HOyNCjYDgcdjGVCgIAF6D1Cl+L2TCbDdjjodCwTAgQsQN+bx3L5v0KxyAiBgxAABCygWavLgzXfPDhrEDDIMuEIwwAQsACOzH2keh9ItA3LhAABC2janQyB+/X09DIIHIwABCyANw3Ad4ZGx8aGGQaAgAXUNTk1LeFqgJEAOCABCFiAPiwPAuZQhwUQsACOxgHNhkfHxoYYBoCABWxocmpaakl4owA4MAEIWIBGIwwBYAlL6wABC6jpHoYAsGTv6NgYJ4cABCxgrdXu7ZxuDlg3whAABCzgsiNwhgBoCWcTAgQsgDcHr+vv72cQ3GWEIQAIWABvDoBedHUHCFjAJZNT0xKuKNAFWsdSO0DAAi5ieRDguQQQsADNRhgCQIth2jUABCxAlgeHFO0ZAJ1YJgQBiyEAmL0CNKOrOwhYDAHAmwHAQQtAwAJ0YzkD0It2DSBgMQToZJNT0/ImQEEuoN8IQwACFtC5mL3ysHg8xiC4F+0aQMACOhj1Vx4Wi8UZBPcaYQhAwAJ4EwCg2ejYGM8vELCATjM5Nc3yIGAvlglBwAI6EMuDgL1GGAIQsABe/AHoxbY5IGABnWRyalpe9OnTA3AgAxCwAF70Ac+hDgsELIAXfQAczAAELIAXfcDdZNucIYYBBCzA5yanpuXFnhd8gAMagIAF8GKPjfT09DAI7kdLFBCwAF7s4SXhcJhB4KAGIGABvNgDHYc6LBCwAD+j/grgwAYgYAG8yAN+wdI8CFiAj93KEAAc3AAELIAXecAPqMMCAQvwI/YfBDjAAQhYAC/ugN+wRA8CFuBDFNkCHOQABCyAF3fAV4ZHx8YGGAYQsACfvbgzBP7T38/7NQc6AAELaIvJqWle1AEOdAACFsBRM+BL1EKCgAXwog6Agx2AgAXUwrIE4BKjY2OELBCwAK+bnJqWcEUlNMABD0DAAngxB3yLJXsQsABezAFw0AMQsABezAF3Y+NnELAAL2ODZ4ADH4CABfAiDnQKlu5BwAI8bIQh8Lf+/n4GgYMfgIAFcJQMgIMfELAAjpIB2GB0bIznJwhYgNdMTk0PKRqMAm42whCAgAV4D0fHgLvdyhCAgAV4D/VXAAdBAAEL4MUb4DkKELAAdxthCAB3Gx0b43kKAhbgFZNT0xwZA97AcxUELIAXbQA6BQIBaiVBwAI8hLOTAA9YXl7mYAgELMBDeNHuED09PQyCtw2Njo3Rrw4ELMAjRhiCzhAOhxkEDogAAhZgNwrcAQIWQMAC9BtiCABPoWYSBCyAo2EAPGcBAhY6D6d9AwQsgIAF8GINdDY6uoOABbjY5NT0UPkDp3wDHBgBBCxAoyGGAPCkaxgCELAA9xphCABPYgYLBCzAxTjdG+DgCCBgARwFo1V0c/eH0bExnr8gYAEuNcQQdB72I+T5CxCwAJtMTk2PMAqApzGDBQIWwNEvAJ0CgQBNgkHAAlyIAnfAw5aXlzlIAgELcCGWFwBvI2CBgAUQsADoxpY5IGABLjI5NS3b47BFDuD1N6VgkAMlELAAF+FFGfCBUqnEljkgYAEELAA8lwECFvyLMwgBAhZAwAI0G2IIAF8YGB0bo54SBCyAo160WzweZxB4PgMELEAnziBELEbAImABBCyAF2MA9XAmITwvzBCAgAU3yuVyan5+ru51IpGoGhwcZLB4TgMELICjXVTMzc2pVCql5ssf5+ZmVS6fV2dnZkzfz8LioiqWiioUDque7m4Vi8ZUd0+36tvUxyATsAACFsCLsb+dPTtTDlBn1YzxcUbrfafSaeNjMplc8+8SuPr6+oywJR9DoRC/CPejphKeF2AI4HWTU9NzvCC7kyzznZqeNgKVfJS/20FmsJKLC01dVwLX1i1bjaXFWCzGL8m9PnP3vn3jDAO8ihkscLQL7WSm6sSJE7aGKqtkpis1eVJNlC8Stq688kq1eXAzM1vuM8QQgIAFtMnk1PQIo+AOEqTeffeEOvbmm0ZdlRdI2DpeDoInQyfVYDlk7bz6ama1CFgAAQvgRdgdweqtY8fUsWNvum62qlmFYlGdO3/OuEidlgQtCuTbju2vQMACCFgEK7+QIvnXyxeCFs9tgIAFjnLhKAlVvzp61FfBqlbQ6unuMYIW/bYcx9nB8DTOIoSnTU5Nv8wLsXOkeP25Z591XY3VYjqlEuvaM+hUKpVUd1eXuvGGG1V3dzcPBOdce/e+fRMMA7yIGSxwlIuGZKZKZqxk5sqNIuGIrfcfDAZVJptVL778ktpyxRXq+uuuV5FIhAeG/YbKFwIWPIm9COFZk1PTQ4yC/WTW6sc/esy14crRIFcOVTJT9vNnf6HeO32aB4fdb1DB4AijAK9iBgteP7qFjWTW6ujR1xiIdeLxuHrn+Dvq1KlTavjWW5nNskmpVOpnFODZAwSGAB7G8qBNZEnwiSd+QriqIxqNqnwhr5766bg6f/48A8JzHCBgwTfo4G4D2YBZlgR17xXoyxfQYNBo5/DCSy+qN95kCdUGQwwBCFiA8+5kCPSSeqsnn/iJZzqxuybpDwyo02dOq5898zOVz+cZEAIWQMCCt9/XGAJ93j1xQj3xk5/4ureVnaR9Q75QUE+XQ1YikWBANBkdG2OZEAQswGG88GoMV8899ywDoSFkyabRz/zi54QsDqTQ4TiLEJ5Eiwb/hqtSOKrymwbVcjhifKwnlEmp0FJKFZOz5b9dcMX3L2cYVkLWJ3/jE6q/nxPhWjRSvowzDCBgAc4gYPkkXGUHt6vc4DbjY37TgBGwzMqnkipx/NcqUv4YLgeuyGLC+HOgWGjLzyRtG7q6uozlwk9/8lOELICABRCwOsX09HTbwlX6qj1qaetOI1hZCVQ1g1ZPn3FZ2rJj5QWuHLZic2dVLDmrgrmsoz9jZUsdQlbLOJkFBCyAgOUN0orheYfDVbGrRyX33KIy5WClM1TVUyh/zULXtSp11bXGjFZ89qwRuJwMWcvLy4Ss1lCDBQIW4KBbGQJr5CxBacXg1NmCsvS3UA5W2cFttn2NUCTW8DqV2a309l2qe2bKsaDV09NjtG4gZFnGySzwJM4iBEe1HcapcCUF6udv/3z58jlbw5XxQhaNNX3dYvm6C7uuV3M3327791UhzUiFNCSlT5Z5o2NjQ4wCCFgAR7Wu9dKLLxrLg3aS5b/Ejbersx/7kmMBxopK0Jq/4VaV77V3Vkk6vm/evFktLCyo555/jgeieQQseA5LhPAqZrBMkqL2Y8fs3c5F6qvmPnCHlhqrrlBQXd29sony1V0R1V3++9uLWfXOgt5idanTSuz5gOo6f9pYOrTrzENp3SAd38+dP29sq/O+m2/mQUnAAgELcI/JqWlmr0ySJUE7i9qNWaubblPpHXssh6nrN8XUDb0xI1Rd33v5kt+ppbwaP7to288gZx5KjVbv9DvG2Yd2kB5ZUvj+xptvqK1btqgt5QsIWCBgAW7B7JVJEq7sqruSswMvfOjTDZuCbhSqbhnoUh/qjxsf65Fw9V/eOqeWiiVbx6kym9X73oRtRfBSj5XNZtWzzz+nvviF3zR6ZqGhaxgCELAA+40wBM2TpUG52GGlkP1zppYEN0fDamRbr/roFd1GyGrEqXBVsRwKG7VZErZ63ntX+/1LPZacSTg7O6tefOlFdcfH7uBB2tgQQwACFgDXkFmrl158wZb7lmahc+9vPhxIsPrSjj4jWDXL6XBVTZYMl0Mh1Tv1jvb7lqVCubx3+rRxuWrHDh6sBCz4DGcRwovo7Nykt44dU6mU/nois+FKgtX/9r5tnglXFZnBbWpx1/W23HelH9aLtG4gYIGABcA7JFgdPfpaW8OVnP138IM71BfLAauZ5UA3hSu7Q5acVbhp0yYjXEnRO+qjFxYIWID9OIuwCXaEK6m5ajZcrcxabVeboyFTX8NN4crukCVd3qUm653jx1U6neZBWx8BCwQswGacRdiAzF69e+KE9nAlBe2NyEzVv9lzhTFrZZYbw9WakKW5caqEKwlZQpYKQcACAQtoC3pgNUf37JWcJSgzV43OFpRw9Yc3bm3YdsFr4epiyNp1vUp192m9z8osljQgPV++gIAFAhbQDsxeNWDH7JV0Z2/U56oSrqTuqh3hKhBy5qTopaGbVDYY0nZ/1bNY1GLVxS7ZIGABNmIGq4Fjb+rdDkeK2mULHDeHKxHu6nZmgMMRldp1oyoWi9rushKwmMXiuQ8CFtAuzGDVIX2v3n1X3+yVdGlP3Hib68OV00r9g0Y91vLysp4X4mDQ2EJHnJw8yQOZ5z4IWIDj2DKjXmCZnta6Jc78jbc3rLv62s6BjgpXFfmde9TSckDb/V0KWJOcUbgxZrBAwAJsNMQQ1HbsmL7lwezg9oZLg3eubnnTaeHKEI6opSt3q0KhoOXuotGo0RurErIAELAAJ7FMUIMUt8/NzWm7v0ZLgzJrJbNXHRmuVi1fuVOlovpqv1gmrG90bGyEUQABC7AHywQ1TE9PabsvKWxvdNbgvxza3NHhqqKwc4/KalqWrQQsWSKUPQoBELAAtJnO1gzJPbfU/bx0aTdbd+XHcCWWBzardLRbS8G7LBFGIivjevr0ezyoOcACAQuw3+TU9AijsDGdy4NSe1WM99T8vJw1KLVXhKtLStuuUplsVst9SS2WYAZrQ5QIgIAFwDlnZ2a03dfi7pvqfl7qrry6cbNdpBYrG9DTfLSra6ULvmwCTci6DGcRg4AF2GCIIdjYzFk9AUv6XtU7c1CClZmzBjshXF0cu81btdRiVWawxPnz53hw8xoAAhbAi2u76JrBWmrQlmHExNJgJ4UrsXz1tSqX1VPsHovFjI/n6OoOELAAB7AX2Qak/kouOqR37Kn7+WZrrzotXBniXSof71alUus/c2UWK5FIGEuFuJTxGQIQsAD9OINoA7qK22V5sF5rhlsGupqqverIcLVqect2ldMQiCozWIJZLICABaAN5jWePVjPh/q7CFeN9F+hshqWCSsd3YXMYuGS0bGxIUYBBCxAL2awNqCrwD07uK3u528ZiLs6XEV62r+CLD2xisViy8uEErBkA2hBoftlCFggYAGa0QNnA3lNXcTrzWBdvylWd3mw42eu1jxKr1B5DfsTVhqOzjODBRCwALtMTk0TrmrQUYNVCkfrNhe9oTdGuGqSzGIV8q0HrMoyoRS5U+i+xghDAAIWoA/LgxvQdfZgo30Ha22LQ7jaQKxLFYpFbQFLUIcFELAAOBqwFjUFrPoThFd3RwlXzYp3G3VYLb84By+9PKfSacb1Erq5g4AFaDTEENhnORyt+/nN0RDhqtmx7N1kfGw1ZFVqsESagMVrAQhYAC+qzkkt6lkiLHTVrr9avzxIuGogvDJey8vLjAVAwALgyYClqQarGK/dob0rHCRcWaDjTMIKWjWsMcIQgIAF6HMrQ9BehCsTevsYA4CABXgCbRoIV94RjjAGNhodG+P1AAQsAN42my0SrixYLlGDZSPatsD9x1kMATxihCFoU8DKFRgEC3S0agDgXcxgAYBuGdoq2IwlQhCwgFaxTQ68F7CW1nRih3YsEYKABfBiauNh/OCglvuJLMwxmJoFggEGASBgAfCiaFTP2WrBQs77gcYtM0aZJR6Ytj/uo2yXAwIWoAFLhDYLZVKe/xnCdbrROxr0VgNWINDaDFY2m7345+ptc6BULpcbYhRAwAJaxxJhreQ5oGeJMLSUYjB1WUyuBD6NM2r9/RxjAAQsAI6JRqNa7ic2N8Ng6pJdOYMwGGzt5TWfzzOWdY4tGAIQsADYapBCd1cJzM9qCVjVm0X39/czsGsxqw0CFqDBnQxBbT09emqPIosErJYV8sYSYSTceg/n6hqsKDVYAAELgLMGBzdruZ+us9MMZosqs1et9sBa3wV+y5YtDO467EcIAhYAW23bvk3L/UTnzjKYrUpcMD6EI63NYFXXX3V3dzOuG2OZEAQsgBdS++g6k1B6YcXPMYvVisD5lZMFWl0irF4eHKD+CiBgAXZlCIagNjmTUFcdVhcByzppz5BZMuqlWu2BlctdavxKiwaAgAWgTbZt367lfuLUYVkWODVhfIy02F2/VCqtWSLcSv1VLcxsg4AFWMVGz83ZuXOXnheEQk51nz7BgJpVyF9cHmz1jL/q2StBgXtNvDaAgAVwlGqvbdu2abuv3sljDKhJRrgqh6xYNNry8mAmk7n4Z2avAAIWgDaSOqydO3dquS9pOBrjjEJzAevk28bHWKz1zvrVBe47dlzF4NZG9T8IWADsp2uZUGw6cZQBbTZcnZk2itvlzMFwuPX2DNU9sJjBqovZbRCwAF5E7Xe1phksIXsTMovVZMBanb2Kapi9SqfTF/8s/a/YIgcgYAF2oZC1STqXCcXg688yqM2Eq9XZq5iGjbeXlpYu/vmqHTsYYICABcANrt1znbb7Ci2lKHivpxysAtMTxh+7uuKt310mY7RoqLhm9zWMcX3MboOABcAZMoOlq+mokFqsUCbFwG704nnsNePMQWnLENawuXMqdWmcZWmQ5cGGmN0GAQtowZ0MgTl7NM5iSV+swV8/54mfO9LT59jXMmau5i8YLRm6u7tavj8pbK8+e/D6667ngQwQsAC4yY033WTUY+kiBe99nFV4yWLyYmG7LA0Gg62/jC4sLFwKipEI9VcAAQuA20i4uummm7XepywVclahMpYEq5cG47FYy3cps1fVZw/K7FWkxW7wnWJ0bIw6LBCwADhH9yyW2Pzq00YT0k4WkHC1mDRmrXp6urXcZ/Xslbhm924ewM2jDgsELMCiEYbAPDtmsYx6rNefMz52ariSLXGk7mpTb0/LW+KI9bNXEq6k/xUAAhYAl7JjFktmsLa8+ETHhazA8ddXOrYrZRS1h0IhLfe7fvbqfTe/jwcuQMAC4GYSrj54yy3a77fTQpYUtFf6XcmyYExTaM3lcmtmryRcMXtl2hBDAAIWAMfJMuHg4CAhy2q4kmXBibe1hyuRSCQujWckoq6/7joesAQsELAA+01OTfPiqcHH7vi4LfdrhKyfHlHB+fP+G7RCfiVcrS4L6g5X0lRUNnaukNkrzhwECFgAR6ceIjNYt9zyIXtC1nLRmMmKTL7lnwHLLKngq88b4UoK2XWHKylsr6692rplC7NXAAELgBdJLZYdS4UXQ9axX6rYi08qlct6epzkLMHgi8+sNBMth6u+Tb1aw5WYn59fs+fgh2wKvwAIWAAcIEuFus8qvPhCEgiqLXNnVN/TR5SamfLe4MiS4K9fNC7y50g4rAb6+7SdLVghM1fVW+LI0iB7DraErbRAwALQXjKDddttt9v6NTapkrFkGPrlP3pmNkuWAoPPjxuzV0LaMGza1Kulz1U1OWuwemlQgtX7br6ZByZAwAIcN8IQ6HXtnj3GxU6ypLYtMaN6Hx9V6rVnXRu0AvOzxnJgYHXrm8qslY7tb9aTJcHZ2dmLf5eC9o9/7A4ekICPhRkCoLPcccfH1fzcnJqbs2/bG1ky7I/HVPd7b6nEiaMqu+cWpW6+TalorO0/v9GN/dSEUvMXVr7XYNDYtDlm0/KphKsLFy6sqbu6/bbb6XkFELAA+M1nP/d59eMfPWa0C7BTJBxRW3ojKjt9TC28+YLK7rphJWgNbnP2B84srQard40/OxGsKpLJ5GUtGa7asYMHoR7sRQgCFgD3kGL3T336TvXkEz8xaoPsJiEmtvkKlZ07o9JP/p1KhyJK7bxeqV3ly/Zd9oaqmWnjrMAKKVyPx2O2ByshZwyu32uQuiuthhkCELAAuIoUvctMllMh62LQKl/6l0sq/d47Kn38qMoHgiszWhK0Brcqtbn8554+c3csdV5zZ1e2tEklVUCW/1ZnqoTMVkUjERWLRbWfGViLBKvqcCVF7bRkAAhYgBvcyhD4L2QZgaccqnq7e4xLqRy2MpkFlX37ZZUtfw/SiNPQWw5ZPVUtDCp/X98Gourvgbn5lY+BgFFIHo6EjeJ1p0JVdbiS2avqcPXpT36Kbu0AAQtwBeorfByyqsNWd1eXcRESuPL5gsoX8mo5Na9y8lEKxOdmNr4DY1ZspXi+UCgYs1VyaRfCFQACFgBXhKz1gauylGhWcnGhrd/7+porwhXQueiDBeBiyPril37Lti11/I5w1R6jY2MUuoOABcDdenp6jJmsbdu3MxhNkv5W586dI1y1D6UEIGABcD9p4fC5csi66SbaCTQi/a0kXFX3uZJWDJ/7zGcJV0CHowYLbjbCELTPbbffbsxkPf/cs22vy3IjadKaSCTW/Ju0Ybj+uusYHADMYAGobefOneq3v3IXS4ZVKvsKVocrma2SJUHCFYAKZrAA1FVZMjx27E31q6NHO3o2S+qsZOub6n0FZdsb2VuQJUEABCwApklN1rXX7lEvvfSievfEiY762aX5qZwlmM1mL/6bBCrZV5BZq7YbYghAwALgaTKbdccdH1d79uxRR48eVWdnZnz988pM1cLCwmWbYsusldRbdXd386AgYAEELAB6bNu2XX3uc9uNmayjR1+7LID4IVjJzySX6uVACVQfue12tWXLFh4EAAhY8J7JqWl623jAtXv2GBcJWi+//NKaJbR2kD0HL+5lqDFYsRwIgIAFv6A7sweD1ltvvaVeKQetVkJOSy9oFgOW9LGSUFXdLLQSrK6/7nojWFHEDoCABaAtbrzxRuMyNTVlBC1pZxC1sKegEySIZTIZI1RVNwoVshQoM1bSNBQACFgAXGHXrl3GJZGYVy+99JKanppWhUJexeNx14YqmaGS4vVrdl9DjRUAAhYA9+rvH1Cf+cxnjT+/deyYOvbWMTV58qQKBAKqq6vL9sAlIUou0rtL6sM2Wj6UULVjx1XGR5YBvfkwYwhAwALQsW686SbjImZmZozAdfLkhDp16pQRbCRsBYNBFYvFjOvI0qL8vREJT1KQLuFJmoAuZTLGn2sV3MtGzFu3bFFbtmw1QhU8j3pNELAAQGzfvt24fEp92vj7yZMny6HrjBG8EvPzxt+tSC4uqHyhsCZM9XR3GzNpEqrk78xSASBgAegI11xzjXFZrxK0pJYrMZ+oex+xeMyYwVpcXCRIASBgATXQBwtVoeuapq4vTU/bXUgPACLIEMClqKsAABCwAAAAQMACAAAgYAFAPX7bdBoAAQsA2q5Q1aIBAAhYAABYwwkxIGABAKAZLV1AwAIAACBgAQAAgIAFAABAwAIAACBgAY64lSEAABCwAL04MwgAQMACAAAAAQsAAICABQAAQMACAAAgYAEAAICABQAAQMACAAAgYAEAAICABQAAQMACAMCS0bGxEUYBBCwAAAACFgAAAAhYAAAABCwAAAACFgAAAAhYAAAABCwAAAACFgAAAAhYAAAABCwAAAACFgA4IJFIMAgACFgAAAAELAAAABCwAAAACFgAAAAELAAA2uvuffvGGQUQsAAAAAhYAAAAIGABAAAQsAAAAAhYAAAAIGABAAAQsAAAAAhYgEY/ZQgAAAQsAAAAELAAAAAIWAAAAAQsAABsNcEQgIAFADZJpRYZBAIWQMACAJ0KhSKDAICABQAAQMACnDXBEAAACFgAAQsAAAIWAAAAAQsAgLXmGQIQsAAA0OtVhgAELAAAAAIW0DZM+wMACFiATrt37XyFUQAAELAAAABAwAIAeB6z3SBgAQCgGfWaIGABvHACAAhYQHsx9Y+mFQoFBgEAAQsAdEqlFhkEAAQsAABadfe+feOMAghYAAAABCygrajBAgAQsADNEgwBAICABQCAc5jlBgELAADN6JUHAhbA0SkAgIAFcHQKAAABCwDQUX7KEICABQAAQMAC2mv3rp3jjAIAgIAFAIBzJhgCELAAACBggYAFuAKtGtCUVCrFIAAgYAFNolUDmlIoFBgEAAQsAABacfe+feOMAghYgDUTDAEAgIAF6HWSIQAAELAAALDfOEMAAhZg3QRDAAAgYAEELAAAAQsAAM9ho2cQsIAWTDAEAAACFqDR7l07CVgANkITYhCwAADQjG20QMACeCEFABCwAHdhKQB1ZbMZBqHzTDAEIGABBCzYKJPJMggd5u59+whYIGABLXqVIQAAELAAALDPOEMAAhbQOorcAQAELEAzarAAVJtgCEDAAghYAPQ6yRCAgAW0aPeunSwRAgAIWAAA2GicIQABC9CDWSwAAAEL0Iw6LAAccIGABejy6quvDedyuWFGAoB47pfP72UUQMACWgxX5Q9PlYrFAUYDQDZrbIt0+H/++oH9jAYIWEAL4ap8GSgtLzMgqCmVWmQQOiVg5S7uO0nIAgELaCVcyd+LxSKDgpoKBR4fnaK49ndNyAIBC7AarsRyqcTAAFCpdHr9PxGyQMACrIQr46iVGSwAxmtBYaN/JmSBgAWYDVcAULHBDBYhCwQsoJVwVSgUGCgA9RCyQMACzIQrABDJZJKQBQIWoDNcFfJ5BgxAMwhZIGCBcKWYuQLQhORC0szVCVkgYIFw1Yw8NVgAzCFkgYAFwhUA1JNMLlgKWf/7wYOELBCwQLiqhRosoLPV6IHVUHdP9+H/9Gd/RsgCAQuEq1qW2ZMQG8hmMwxCB6jTA6uucCgsHwhZIGCBcFX7CJaO7rhcJkPA6gRFC3WYkUik+q+ELBCwQLjaCHsSAp3LygxWMHjZ2xwhCwQsEK4uO4I1OYMVDoX4JQA+kM1mLd0uGolu9M+ELBCwQLhaE7BMzmCVlpcJWYAfAlbOWsDaYAaLkAUCFvwdrgKBwPr6iMaByWzAKl8/FCZgAZ4PWBZnsGKxWL1PE7JAwIL/wlV/f5/pgFWk2SjQoQErZ+l2TRxgEbJAwIK/wlU4HC5fzM0uWWnTECj/B8Db0umUpduttmggZIGAhc4JV5W/m2W20H25/F8oyEMd8LKChRYtJmfICVkgYMEf4crCC+BKYDI5i1UsFKnDAjwumUyavk3Q/IEVIQsELHg/XFV/ztSRrMktc+RMwlCQgAV4ldUGw/FY3MrNCFkgYMH74UrU+veaL7ZWziSkVQPgWSmL9VctzFwTskDAgrfDVeU6ZgOTWcvLJSvLBfDKG3AqxSD4mNUWDU0WuBOyQMCC/8KV8SJodgbLQquGYpFZLD8r0L7D5wHLWosGKzWehCwQsOCLcCVvjEtLS6a+vpVWDaXlEmcSAh6VXLBW4K5p1pqQBQIWvBeuEomkpcBkdsaiVKSjO+BVVmatNcxeEbJAwEJnhauVwGTurCIpjJcZLCt9twC0VyqdNn0bs6UHhCwQsNDx4coIWCYL3eVrlUrL1GEBHtOmAndCFghY6LxwZdyPhb44ciZhmIAFeCtg5WzZ5JmQBQIWCFcbKVkIWBLKqMMCvCWZXLB0O5uf64QsELDgv3AlrHR2Nlo1UIcFeIrLlggJWSBgwb/hymrIWl6t26IOC/BQwLKwRGjj8iAhCwQs+DtcGYHJ7KbPqwGLOizAO6xs8mzDGYSELBCw0Bnhyrh/k5s+GyGLOizfoYu7f1nd5NmB5UFCFghY8Ge4Ml58LexJSB2W/7APoY9/txY3eXZwiZCQBQIW/BWuhJVNn2XLHEEdFuB+6VTa0u00d3EnZIGAhc4JV8bXsrBEKFvmCOqwAPezUuCucQ9CQhYIWOi8cHUxMJmcxao0KKUOC3A/K1vktHH2ipAFAhb8Ea6sBCzBvoSAN6Qt1NdFI1G3fPuELAIWCFfeDFfG17awTEg/LMD9pMGolS2xItGIm34MQhYBC4Qr74Ur4+tb6ei+GrAi4TAPBsCtASvn2g7uhCwQsODvcCWs7ElYLKzWYTGDBbiW1T0I29SigZAFAhbhyj/hyghLLcxgBYOBdp9tBKAGK3sQuqTAnZAFAhbhytvhymrIku+7VFr53pnFAlwasCwsEYbdv+xPyCJggXDljXBlBCwLW6WUSiuhjH5YgDtZ2YPQRWcQErJAwCJceTtcrYQla60aVo54CVhel0gkGASfSaetdXB3af0VIYuABcKV98KVyFuYwSqudnSXnz9EHRbgKlbqr4TLa7AIWQQsEK68E66ElTMJq2e96OoOuIuVDu4u2CKHkAUCFuHKP+GqEpbMfn/Vt6EOC3CX5IL5+iuPzV4RsghYIFy5O1xVFFuYxQrTcBRwFStLhPFY3Ms/MiGLgAXClTtZ2TKnugs8s1iAew6WfNgDi5BFwALhynvhynhRtnImYfHSbZjFAtwhlU5Zup3L9iAkZIGARbjyfrgywpKlXlgUugNuY2WLHClud+EehIQsAhYIV94OV0bAsliDVflZQ948AwnwnbSFGSwfLA8SsghYIFy5V6HVWSzqsIC268ACd0IWAQuEK3ezskxYXegeYZkQaDsrPbB8OINFyCJggXDlHgULy4TVhe7MYHlTIjHPIPiElf5XRsCKRvw8LIQsAhYIV+1lZU/C6tuwbQ7QXumUtQ7uPipwJ2QRsEC4ch8rvbAkYJVKl8YgHKFdA9AuLA8SsghYIFy5lLWzCasajtIPC2gbK2cQ+rTAnZBFwALhymUBy0Khe3WTUlkilLEE4DxmsAhZBCwQrlzKUqF7Ye1tmMUCnGe1wD0Wi3XicBGyCFggXDkcsCzUYa3fZod2DYDzrBS4y+teBzcIJmQRsEC4co6VGiwZl+pCd9o1AM5jeZCQRcAC4crlrHR0rw5mMrZhQhbgKCsF7tFIlIEjZBGwQLhyirVCd+qwgHayMoPVofVXhCwCFghX7WGl0L1ULBGwvPr7thCo4S4UuBOyCFggXHlAq3sSGk+MYKCTi2c9JZVKMQheD1jJBdO3of6KkEXAAuHK6YBlYQbLuF1p/SwWdViAE2gwSsgiYIFw5RGWCt3X9cOKsEwIOMLSGYRRZrAIWQQsEK6cD1ga+mFJuwa6ugP2ymazxsUs6q8IWQQsEK7aEbAsFbpffhuK3QF7pS3MXkl9ZDjEc5OQRcAC4cr5gGVxBmv9ONIPC7AX7RkIWQQsEK48ZKU7e8n07UoUugOOstKigQajhCwCFghXbaSjXYPR1Z1lQsC+gJU0H7CYwSJkEbBAuGqjvIYzCQXLhIA9rNRfEbAIWQQsEK7azEo/rOIGy4rMYAH2sDJ7RYNRQhYBC4SrNrNS6C5juz5kSVf3EF3dXSmbzTAIHmalwJ0Go4QsAhYIV24IWRaWCdfvS8hRs3tlMlkGwcOsFLizPEjIImARrghXLqCj0F2EOJsQ0PvcLD/PaDBKyCJggXDlUXlLM1gbBKxgkM2fAY2s1F/J6yXPQ0IWAYtwRbhyAV0NR1de3JnFArQFLJYHCVkELBCuvEtXw1FBHRagDx3cCVkELBCuPM7KLFaBZULAVjQYJWQRsEC48jhdDUcFy4SAhnBlYXmQDZ4JWQQswhXhymWsnElYrLGsyDIhoCFgJRdM34bZK0IWAYtwRbhyW8AqFk2P60YNR4UsE8rvFIB16XSKgEXIImCBcOUHls4mrLlMyDIF0Aor9Vd0cCdkEbAIV4QrF8rrXCakDss1EokEg+AxssFzweQ+oVJ/xfI8IYuARbgiXLmQpRmsYu0ZLJYJAWs4e5CQRcAC4cpHrNRhSS+sUmm5ZsgCYCFg0WCUkEXAAuHKfyHLrFJp49uwTAhYDFjUXxGyCFggXPmLroajgmVCwDzZ3Jn6K0IWAQuEK5/R2XC0ErIANI/lQUIWAQuEKx/SufGzYJkQMBmwaDBKyCJggXDl05BlYRar1mbRLBMCJgPWAvVXhCwCFuGKcOXPgKWxDktEIiwTAs2Q+iu5mHqDov6KkEXAIlwRrrxBdx0WL/5Ac6i/ImQRsAhXhCsf0z2DJXsTylE22iOVWmQQvBKwLNRfdXV1MXCELAIW4Ypw5ZmQZWUWq1jvbEKK3b30u0SbAhYzWIQsAhbhinDl8zdl7XVYLBMC9Vipv5LX2nCIGkdCFgGLcEW48gzddVgsEwL1MXtFyCJgEa4IVx1AZrDM/p4adZ/mbEKgtrm5OQIWIYuARbgiXHVKyDKrWKMflhGwwiwTArVY2X+wK06BOyGLgEW4Ilx5ju5lwmAwYCwVAlgrnU6b3n9Q6hpZdidkEbAIV4QrD9Jd6F55UwCwlpXZK7q3E7IIWIQrwpVHSdsFs7+7InVYgPmARYE7OjRkdUzAIlzhst+jyVks+X3Xq8OSx0+jxw7QcQHLSv0VDUYJWQQswhW8K2el0L3QYBaLgOWoVCrFILg5XC0kTddfMXtFyCJgEa7gcXbUYUlXd3k8waHfIZ3c3R2w2B4HHRyyfB2wCFeop1QqGRczGtVhsUwIVAWsBQrc0bkhy7cBi3CFZuRzOVPXb1SHJSLsTQgYByNm66+kNQNn4xKyCFiEK/ghYGnuhyXkMUUPH3Q6itvR6SHLd+8ChCuYYUcd1krIYhYLHR6waM+ADg9ZvgpYhCuYZSz5mTzLqZnrRyNRBhcdbdbC/oNsj0PIImARruAjluqwGoQsts5BJ8tms8bFDLbHgd9Cli8ezYQrtCJnMmAZj5NmZrGizGKhM3H2IAhZPghYhCu0ytK2OQXqsIBa5qwsD1LgDp+FLE8HLMIVdDFb7N7MDJY89jjl3D7ZbIZBcCkr7RkocIffQpZnAxbhCjpZ2janiZBFTyz7ZDJZBsGN4YrtcUDI8m7AIlxBNyvtGprpoUVPLHQalgdByPJowCJcwQ6yZY7pdg2F5q4fibB1DjqHlQajzGDBjyHLUwGLcAU7mZ3Fki1zmnn8RMLUYaEzyEFKKp02dRupUwyHOAiB/0KWZwIW4Qp2s6sOS3pihUPUYsH/ZudmTd+G9gzwa8hq+rBh9gMf3lv+cGf5IkFnaPUyvvrpR8uXRzb/+uUJwhW8Smaw5HEhj6Wmb1MOWI0ec5WjdLOFv4DXJJMLpm/T09PDwMFsyFJ/9B/+w8Nu/0YbvpOUg5WkxYOrgaoRCVz36gxahCs4qbe3V0VMNAiVAvbenu6mrruwmOKxp1EikVBHj77GQLjICy++YOpAQp4/V191NQMHK+51e8gK1AlWEmiOlC8ja26waZMK3XyTKr33niqdeq/mD14OWS3/4IQrOC0ai5k+ou4tX1+WARtZymRV3sIyJAhYXiDtGV5/4w1Tt5Hn2ubBzQweXBmyfnnrPxueDQaN/LG5VJr/6Kv/9ErLAWs1XEmwGa6Equje31axu37bCFfFN4+phXv/nVpeqDsd/GA5ZH2dcAUvkSPq/oEBU7fpisebOlNQiuJTqTSDTMDypZOTJ9XpM2dM3Wbz5s2qp5slQrgnZP34wx/bX/5wV0ipvevnYqWStvxvj3QtLz965yu/bPg1awWslyvhSgJV75//mQpeddXKm0Rz4eriD25lJotwhXbq6+9XIRNF6fIY7O5qrlBXApYELbTu7NkZ9dZbbzEQLnH0V0dNn0Eoy4P0iYMbQtaPvrx3b+C904dUc+VQYkK+7hdffn685gH7BuHq/upwtenwt6yGK3FodTaMcAXPyJvc/NlM/yw2gNaHTu7ukc1mTYcr6X1FuIImLZ1d+OORf36oHK6OmAhXavW6T63OeDUOWKth6D7jE1dfZYQrWR60GK7Uakg6QLiCl+RMBix5jDU7KyUbQJs5SxHwAqm/Movu7XBDyJJwpRLJA6183Voha/3hw95KuOn6n/6g1XBVcR/hCl4iM1JmHzuFJrbNqTyGm2nrAHgJ2+PAiyGrHIxGWgxXhlD560pBfKOAdafxj1dfpaJ3/baOcCUGZj/w4WHCFbzE9DJhwcwyIZ3d4S+zJgOWvI7TvR0uCFmHtRyUly9LgcChRgFrSP4X+eyIrnB1MWTV+sT3jxwhXMF1zHZ1L5iY9QoFg8YF8ANLs1dxZq/Q3pD1s+GP7lXmaq7qKgeskfWzWBu+yoeuukpnuKrpv/33vxyenZslXMF1CjZtm1NBsTv8YtZCwKJ7O9odsnJK3aX7C6YCgb0NA5aEKifClWLmCi4ljyWzy4R5E8uEFLvDL8wWuMuZg7J1FNDOkJUPBIZ0f7FSIHBnw4C19P9+k3CFjpdvsnC9wswMljy+m2lOCrhZOp02WjSYQXE7XBGy4vER7e8Z6w8mnP5JmwlXK0f4YcIV2huwTM5glUolU01EoxGWCeFts9RfwashK5Ox/Ys6GrCaDVfNIFzBbkZgMjErJcycTSj7F4ZNdIzHWqnUIoPQZnNzs+YDFjNYcEvI8kvAIlzBi8zOYhVMLitSi9La6wDax0r3dsIVOilkORKwjn/4Q4QreJLZru4Fk01KpQ6L7ULgRTQXBSHLBQHrvRuuO0S4ghfJEmHJ5ObMZpcVKXaHF1naHof6K7gkZPkmYOlAuEK72NmuwQhYYZYJ4b0DD7MF7mzujE7jiUc74QptDVg2tmswnoTBALVY8JRZitsB7wcswhXaHrByOVOPP7PtGkSUZUJ4CPVXgMcDFuEKbgpZZhRNLhOGQiH2J4RnJJPm6q9khpbNnUHAcolSqUi4gmuY3fw5b2EvQ/YnhBfI7FXB5DI4ew+CgOUixWKJcAXXMD2DVTL/+JWzCdmfEG43y/Ig4O2ABXg9ZBVMLhOKaJRi92YlEgkGoQ3Mdm83tj1jeRAELAC1mF4mtNBpnJYNcHe4Mr88SO8rELAA1A9MZpcJi+ZnsGjZADez0lyU+isQsADUJTVVZkKWXN/KfnksE8KtzNZfyfIgBwwgYAFoyOwyYcHCLJa0awiHQgw2XCWdThsbPJvB8iAIWACa4kShu+CoH25z7vw507dheRAELABNMbtMaKWr+0rACrNvG1yF5UGAgAXYyuzZgVbqsESUNye4BMuDAAELsD9gmV0mzFsLWDQehVuwPAgQsADbGct+JorXZYmwVDK/K4GEK84orBFaLc4KwhqWBwECFuAIs8slVgMBjUc3lkqlGASHsDwIELAAx5hdJrSy+bPxBKXxKNqM5UGAgAU4xsoyodXNy2PRKAOOtmF5ECBgAY4yv0xorSeWzGLReBTtwPIgQMACHGd6mbCFwuxYjFksOI/lQYCABThOlgnNhCwpdLe6TBgKhYwtdAAnsTwIELCAtjC9N6HFZUIRpRYLDrKyPNjTzewVQMACNHBymZDtc+AkK8uD3T3dDBxAwAJaZ3ZvwlaWCQVnFMIpZpcHZWkwHAozcAABC9DDyWVCZrFWpFKLPPBslFxIml8epLgdIGABOjm5TFgJWZ2ulZCKxs6dO2/6Nl1dtGcACFiARk4vE0YjETaBhq3m5mZNhn6WBwECFmADJ5cJ2QQa9oarOVUomnt8btq0iYEDCFiADQErmzU1K9XqMiGzWLCL2eJ2Qfd2gIAF2MbJZUJmsWAXs8uDUnvFiRcAAQuwjZPLhCJKx2xoJr2vzC4PUtwOELAAW8kMlpPLhDKLxbYk0GnO5PKgzFyxPAgQsADb5Uz0Dmp1mVDQeBS6FItF0/VXLA8CBCzAEWabM7a6TBgMduYsVqHF2T9cbtZk7ZURsJi9AghYgFOzAKVSqenr50w2Kd1IJ85i0cldvzNnzpgM90HqrwACFuAcM8uExXIYK5VaWybs1Fks6CMzr6l02tRterrZGgcgYAEOv1mZoWO5i1ostGLOQu8r9h4ECFiAo2SJsGjiVPe8yfYOGz6RmcVCC07PmFseDIfDPN4AAhbgvKzJZcKiibqtWpjFghXpdNr0rGtvby8DBxCwAOflTL5hMYuFdpHmomZR3A4QsIC2kP5W5rbOKWr5usxiwXTAOmcuYMViMRUOhRk4gIAFtEfWRMCSui0dxe7MYsEMKW43uzUOxe0AAQtoK/Nb5+ibxZJtdIBGZtkaByBgAV4NWU1fN59veeuclTfBgIpG/T2LlUqleHC1SM50NVt/xdY4AAELcIVMJmPq+rpqsaKRiK9nsdgqp3VWtsahuShAwAJcM0vg9NY5QsKV32ex0BqzW+NI7yspcAdAwAJcwcwslo6tcyr8PosF69gaByBgAZ6XNzkrlcsziwV7nTHZuV1093QzcAABC3APWSI0V+yur75IZrEoSsZ6Zs8epPcVQMACXClnolO7nEmoq4hbZrFoPopq0vvK7NY49L4CCFiAOwNW+Q3NTAuGnMZZrEgkzCwWLqL3FUDAAnzF3NY5BW3F7oJZLAh6XwEELMB3zPbEyhfy2r62zGKFQyFfjGM2m+HBZBG9rwACFuA7MntQNLHvm85idxGL+WMWK5PJ8mCyiN5XAAEL8CUzxcW6NoCuCIVCvpnFgnnpdNp076ve3l4GDiBgAe6XM3n2Vk7zLFY8HueX0KHM1l4Jqb8CQMACXE/OJDQTsnQXu8tG0JEIzUc7MmCdM1/cTu8rgIAFeIaZnlgr189p/fpyRiFb6HRYuDp/ThWK5jYSp7gdIGABniLtGsxsAK272F1msdhCp9MC1nlT15fidpYHAQIW4DlmlgllWVF3yGILnc4hJ1Ykk0lTt2H2CiBgAZ590zMVyHJ6lwnZQqdzmJ29EmzsDBCwAE8yuwF0sXz9oskamkak+WjIg7NYOltXdEbAorgdIGABHSRrclZKd8sGEY97r4lkKpXiwdMkKxs7U3sFELAATzNf7J7X2rJBGM1Hw8xW+JXZ2Supy6P+CiBgAb4IWaaur3F/woo4W6H4ksxczc7NmboN4QogYAFeNFG+PFK+PFC+fKZ8uTYWj19r5g5yubxxVqHWF4FgwDf7FOKSWCz2wG9+/guD8ljbPLj5gb6+vocjkcgr0TonN/RuYmscQBfWBgB7vLJ6ebXy51tv/dD8RlecnJoeL38YaeZOJVwVCkWjQF0nadsgrSDMLFnC9R7+8pd/Sx5z46uXi/7im98cee/06aF8Pn9rLpcdVoHAiCwPUtwOELAAN5moClPj9cJUDQ81G7CEFMfrDliVtg1LmQy/TX945O59+yZqffLf/8EfjK//t8OHHx4pLS8P5/O5W4vF4nC+UBjO5/OMJEDAAhwzvhqofroapiZaubPdu3Y+Mjk1Lfcx1Mz1jRYP+YL2kCX3l8+HTG+pAlf6jtkb3Hvv/nFVNdP1wx8+NpBOp4dT6fRINpu9M5fPDWcymQGGFiBgATpUlliM2alymBq38Q3xYLNXlpkF3QFLxOIxVUil+a1728Td+/Y90uqdbLS8WA5dw7NzsyOpVOrWchAfyeVyQ0UCOUDAAkwEqp+uBqpXHPq6D5sJWDLLJG9s0mZBJ2k8KvsUSjE9POs7dt1xOXRVagsrgWsouZCUwHVnPl8YyeayQywrAgQsoJ2Bao3du3ZOTE5Ny6zD3mZvk83mVHe3/qaQUoslS5C6z1bUJZGY51HbOKw7ohy4Jla/3sPVgSuRSNzJDBcIWEDnqQ5U4y6beWg6YNk1iyUF79Ibi4J3b4aresXtbQhcxpJi+bF0ZzabHaGGCwQswF8mVkPVo6uhypVTIGaL3UU2l1fdXSHt3wsF7571HTd9M1VLig+uBq6RmbMzd+Vy+ZFMNsNZiiBgAR5UHahe8dD3barYXTY+lu1zpFmobhS8e+9A4u59+8bd/A2WA9f46nPz4nLiwuLiXeXHsdRxMbsFAhbgQjIrJTVMsvT3iFtnqZrwoJmAJaQvVpcNmzZLwbt0eJdaL3jCQ176ZtcvJ/79339/byKZuLP8eNu7lFmidgsELKCdR+yroepRl9VSWbZ71875yalpecPZ3+xtZJlFCtPtmMWiw7unDjAe9vIP8C/+xdceWX0+f11qt87MzIyUH9v3sJQIAhbgDFnukzD1HY8t/ZnxHTMBS9g1iyUF73K/qfQSjzx3k87tvjm9srp2S5YSZ+dm96ZSacIWCFiADaFKQscjrXZN94Ldu3aOT05Ny8883Oxt7JzFkrMUw+GwUe8F13rIrz/Y6lLig6thayC5kNwrdVvZbHZvhjNdQcACTJtYfdPoiFBV4w3zsJkbyJuNHX2xhMxiLaaKru2N1eHG796375VO+EFXu8s/LJdK2EokkvcxswUCFtA4VEkNhp+X/5ol43CofGn6zCq7+mKJymbQmWy27QOTSCR4pqz1nU78odeFLZYRQcAC1pmvClXjDMeKqmL3A2ZuZ1d3dyFb6MgyIb2x3PX8uXvfvoc7fRDWLSMOXZidvS+VSnE2IghY6EiVs/8eZihqeshswLJzFkvE43GVSqdZKnTXYwSXh62vq5WzEUdOnzl9Ty6f30ufLRCw4GcTq28ID3u4T5VjrOxPKDKZrOrp6bble5IiercsFcLAAUr9sDWuVs46vnfse9/bn06n71lYXBxhCREELPhBZQnwIeqqLDG1P6EolkpG7yrZ7sYOLBW6J1y1c99Br9n3e78nYdSo1zp3/vz+paWle1hCBAELXiRhqnIWILNVFlnZn1BIX6xwOGQUp9uBpULXhG+YtLqEeL9cVrrHJ+9JpVO0fAABC67GbJU9JKgeMnMD6byeW+2NZQeWCtt/AOP2fQe9oNI9Xma15hOJ/cly2GJWCwQsuIkcET6gmK2yy8NqZX9CU0W6uVxeRcIRW5qPCpYK2x66ocn6Wa35xPx91GqBgIV2qsxWcSRto9WWDTLW+83cTpbv7NpCp4KlwragNYONqme15ubnD0ozU85ABAELjry4q5UZlYc6tMN6uzxgNmAJOQIvFYsqEomoUDikQsGg1m/K6aXC8hsdjwRmrxyxOqt1bzlofX0xtbhfOsaXP7J8CAIWtJtQtFhoG6stG4ScVViUAJSVQBRc2VuwfAmGgloCl7FUWH7TcWKvQvZDNDzMEDgatOT1zmhi+v3vH9k/Nz9HqwcQsKDFuFrpss6Levs9ZCVgVZPi95LRxmHlzUHOMpSQJbNbwUDQcuhir0LnwhWtGdrna1/7qrwOPlxpYLqUyezn7EMQsGAlWD1AfZV77N61c9xKy4Z6JBAZs0/rlj0kZBnhS1o9lP8LlYOXWg1jG5HrdndJPdYSvyj7QzbarNLAtBy0HjDqtJKJ/VKLCBCwUPcIeTVYcZTsTlKLddjuLyLLiqLWGYLh1a14AuXAVTlLUWbAwuEwy3g2HvTcvW8f7U/cFbTkddKo05pPJA4sLi7el1xIUhCPlddEhgBVweracrC6l3DlXrt37ZTfU9tr4CqzXrLUKBtMy2UpkyFc2YvGou4NWvP/8u599++8+uprh3Zf80Dfpj7qVEHAAsHKg1gm6jwTtGbwRtD63d/9HYIWCFgEK4KVh393IFSDoAUCFghW0EVaNhCyOso8v2+CFghYIFjBGR05o/H/s3dusW2d9wH/KJIiKYkUJduSXduSnNZ7mdvYQIA9+CFS8jLYD5GCLY2zIZaa7CEFEkcwAm9tU1uPfNgsJ8C6tQFCpxcH6IDIDzb2FgbYy7oMUYe2e2k3Omub6E6KMi8iRe78j0iZknUhJV7O5fczDg5FHvPyndvv/L//+X8PH67Yct996dIlTsyIFiBYgFhBvek7eULuJovY7Xfncrasok33IKIFJoQyDdZFTr7UsbL+iXeQZrD2BRKFRa0pWtrsxr1798NLsXbqaFkUIljWQyIbQ5pYDSFX1qbv5AkZOoeTr7WhNIO1RSv613/10lh/X/+pE8ePR2TMULAORLCsg5xoJxjSxnY0pPAoNAUpLMpFkk1ESy6MZQieufn564tLi4MMKm1+iGCZn1jxJHsOubIfRik8CnWB3Cv7iVZk9PLLQwN9/WPdXd1RZ3HEBECwoPGEi2J1Q5s4yXIiBusghUWnaAZ7IoNKH+3tPXfy+ImJ9vZ2ju0IFjSQUp4VdwaCMLmwsEArWATpGkqlUhO0hL0p3XHYf7Lv3PFjX5nyer00iskgB8tc6N2BmlRN0hRQ4s7PfnpW5jIOYEeHXxW0f709vcrd6la9vUeVHJh7e3tpKAORTCb16WFxnlvLqTVt/cl4jg6HPnj204rioqA28rNGivlZ7y8uLQ6Qn4VgQW2Rg+04XYGwDdf1ndnlUul0Sn/i888f6MI1/dln2nNplclk1Orqqurv79dfL4mX0Fd8zgwiFo8be/OXwa/j8bj+uCRPwvz83MZzsj7kbrHW1lbl8Xj0eYmiXAmjb4y/OfHOzckomzcURSuizU5NTd29MTM7e2U5sRykVRAsOBjTRbGK0BSwlVAoNKh2qIUlwuX3+/WpREm2Fhd/syFd27FVtsqFTOgMdqrOzs3Hd1neCt0YIkgiSuXMzc9v+rskTFtFaiuSpCzrQSaRqkAgoILBis+LIs5jbOVQzvDwc3r9rHi84+bs/Nzw1m0VECzYG7lUvyUJ7DQF7MKVahYWAdoqQSJdcpCWiFfpscwfPHiwsUz542rp1IQi2NlZ0bJbRW4rn//+c01mUrvIUUxVcsJZLYs01QoRKBEqmZciVC0tB0pzJYoF21LWbTj85czMTek2pFUQLKiMiFy5ksAOuxEKheSgOnzQ99lOuraKl0S68vm8HvWSeTXEYzF9qoS9RG55JaGy2vdpFi0iUMWIlMiTdPFJt169CkQGAgGiWLCbaE1pkhXp1LaT2bnZN6kGj2DBzsSKYsXt2VAJ1+v55juJV0m+hJJwiYTliuKTSqVM2ZiSONzW1qYKhYIuTCJQMpXkqTxXqlEkk8nRd959d+KN11/nYgt2kiw5b4xronV3Znb2ZiweO0sSPIIFm5kqyhVJ7LAnoVBIEnlGm/X5JfHarTuvXLrkgF+e71X+Wrng7JQTVgl5TYwKmuyJJG36Htr7ej2eje66kkiVHnvKXjMa0kaz83NEsaAS0Ypos3M///m/3JjTthmiWQgWELWC/fGm4Q8uxa60Eu3t7Qd+z9mFeWW3pF6JYr0x/ub4OzcnufiCPZHaWffu3Z+amZ19n2hWc6HQaHMRqTqFXME+uGLHH93pD9juN0sUq7ur+002eaiUixcvTH9rbHS9EvyWiC4gWFZHrkRHNLEaoUsQqiUUCo1qM1vWwPFI7agm5EI1m8RK4sq9e/epewRVoVeC7+s/d+TwEcY1RLBsQUStjx9I1Ar2yxU7//iOGnQ1mo1sNhv8j//8lCgWVI1Es44cPnzu2NGjkwy3g2BZGSkYOkT5BdgvxcKiZ+3cBl6PV9nxajydSV9mD4B9Slbs0osvjj8xcGqoKxik1wTBshRSjf0cYwhCDdj3Sbavr0899dRT+mR2Ah1+2634ZDI58M67746yC8ABRCty7OixUzJ4NF2G9Ye7COtPWDGGINSAYmHRqk6wnZ2d6vz58+r06dN6OQKpW3Xnzh3Tt0Wbz6fiieWqi56anVg8fl0xCDQcTLL0HOCPPpp684svv7hJOYf6QQSrjsdCtV5+gdpWUCuqkiuJVI2OjqozZ85skqvZ2VlLNIZIlt2YX5iXKNYguwIclJGR4UlJgO/u6o7SGgiWmZAuQcm14koTaknF3YMXLlxQzzzzjC5WgtXkSuhoa7flRrDycOU6uwLUAkmAP9rbe44uQwTLLISLcjVNU0CtCIVCMubgQCXLSpegRK1KWFGuBDkh2PGuqPmFhcF79+4PsFdAjSQr9tJLl0ZO9Q+Mc5chgmVU6BKEelJRaYaenh5dsKwuVyXabdhNKIVHf/3fvyGKBTVFugyfGDh1jrsMESyjEVV0CUKdKCa3D1ay7LPPPmsbuRKkZINRxxGsJ8uJ5WEKj0KtkS5DucvwyOEjEboMESwjEFHrJRjoEoR6MVrJQnLH4MmTJ20jVyXsmOy+vLwc/Pz/Ph9l14A6SFZs9PLLQ1KY1O120yAIVtOYLBYOJaQK9aSi5HYpxWA3uRLsmuw+Nz9/hV0D6oUUJu07cXKMvCwEqxlIrtU4zQD1pJrkdsm/sptcCdKVYccr7Vg8NvDjn/x0kL0E6sXzz4+EJS8r4A8QRECwGnNcU+tdgmGaAhpAxaUZpCSD3eSqRJtNk92/+PILhs+BuiJ5WSeOHz91qPsQaTAIVl0pDXnDhgZ1JxQKSRLzcKXL379/35ZyJfg89uzGiC/HRynZAA2QrFhvT4+MYxgm+R3BqgcRtX6nYJSmgAYxWs3C0j1oV+Sg72lttd3vTiQSanFpaZRdBRohWa++8sqYJL8jWQhWLQmTzA5NgO6fKmjztdnyd//+D79nO4GGIcnv3V3dY9xhiGDVggkpHkozQCMp1r46e5D3yBfyKplKqcTKij4wsswzq6sqm8tass28Xo9hv5sMSi05U9L+qXRaJZMplc5k1Nra2oHfe25+buDevfuD7DXQKEYvvxyWOwxb3W6CDrvgogl2ZYxkdmgSB74Fv8XRsin5W07uq9qUWc1okpXTT/qlbjW5GpXlHS0O5XatX5m6nE5lpq4A+f7yO7LZxglkoVDYkKQ1rT2lTYVcNrfpOWlHaU+X26W3eS2Lo4q4/e5/fidRrAi7DTQKucPwzocfTs/Ozn68ms1S9BbBQq7ANAzX+g3lxC6TX3Xof0skK6uJwPo8qwvYjvKiCYHb9ehwURKyEs5tZKylTNYahQhlvArBypdJUTkioJskJvvo73yZVO3UVrqcupzKp7WZtIvD4ajr706lU5LsPi55Muw60CguvfjitCZZQ8vLiY+XE8tIFoK1J3KAYrBmaBqhUEi6Bgfq/TkiP+sC5CsTi6wuDyJeEunKaY/lb5GQcgHbTcYq/nxd0morHmtreZVIrOwqS7VtQ5cuVC3OdQFthExtxx/++Ec10D8gUs5FITRcsjS5PxV9kP04mUqdpUUQLOQKjEzTkpZL0iXpTKVI11bxyq3l1h8Xuxn3S7268vaKMFWLCJRTJpEnPSpXlCqDjYE4MzNzGcGCZiCRU02yhqIPokgWgoVcgaEZNtoXKhevx0RJk698fl1q9GhXIb8hTweVsP19V1fFglWSJ/1g6F4/HIpISWTNiBK1G8uJxKDUxNJOdlF2IUCyECzkCqCMg3QPymDPMlyOTL/61a9UPB5vmHxVQknESqxu080o3ZIHpc3rUwuxpcekq1yqzCROlTI7N6uSyaTI+SR7EiBZCBZyBbCZqrsHz5w5o86fP68LltBIuTqIiG1XGLS8W/IgpDVRa3TkzAjMzM1eRrAAyTIGdq+DhVyB0ai4e1AiVaOjo+rChQub5EqGzLE7Xo/Hlr87FoudZegcMIJkDfQPDLX5fLY+t9pZsJArMBTVdA+KXF26dEmfl0CuHuFptadglXUTAiBZCBZyBVBksBq58pRFaZCrzRi5qnu9KXYTAiBZCBZyBVCkohPjs88+i1ztdWArVnW35dUj3YRgQMlqbW213TnXboKFXIEhCYVCUgV5z4RQSWg/efIkclUB2yXR24HFpUWZ0U0IhpKs1dXVIe2hrc69dhIs5AqMzGAlC50+fRq5QrB2RcYm/OMXXzzNFgBG4q2rV/VzsJ0ky06CNYZcgYF5rhrBQq72ptWmgiUsJ5aJYIEhJevE8eNjaj3ggWBZSK6m2LzBwAzutUBfXx9yVc3BzcZ5WNJNeO/efSQLDIeMXajWI1mWlyw7CNa4JldhNmswKqFQaEBVWJ4BuaoOu3YTJhIJlU6n6SYEQ/LW1avT7W1tIwiWuQlrckVVYzA6g5UsNDMzg1whWBWzsLgwyBYARuXbr70W0WZjCJY5mdLkaozNGExARZGGTCZDS1WJnfOwEisrUq4hyFYARuWtq1fDbpfbskEQqwrWtNXNGCzFIE1QpwOczfOw2LbA6Lx55Y1xl8tlyRxpKwqWJM6NPPnkN2JsumB0ivWvBmiJ+uF22XNMe8nDUhXUVgNoNn/ytdMSELHcXf5WFCypdRVlkwWTwAmwzth1XELhy5kZEt3B8EghUinf4HQ6LRUYsZpgUesKzMZgvd54bW1NJVMpycXRJ3mcWV1V+ULeVg3sdhsjgiUFQGVKpdP6lM5k9HVUT1KpJAIPpkDKNwT8fpEsBMuAhCnHACakv15vLAeqNp9P+Ts6VHt7m2ppcWgn9bRaXFpSf/jyC/Xl3KyaX1xQC7GlDQmT10XCsrmsdQTL5dZ+e/0Odfl8fkOeRJpEnpJJTWwTK/q0uBRTsfiySqczKqcJVavbrXxer/J6PKreJxNtXQYZlxDMwquvvDKl7RcTVvk9VklOmOaOQTApDTn5SbK31+PVp7KTry5S2WxWpTSxkvlOlJc7kKRxeb9Hf7uUw7FZYOS5Fodxrt8kD0t+706IHG0lu+W5XPbR32uaVIlY7fZ5Ik8urR3anW11FbzdKOZhyTYWZVcDM/Dt11678Y8/+MHTD5PJQQSr+ehJ7WyWYFKqPoh0dnbqAz7LvKenR3300Uf7+mCRpq11okrSJV1XIlwiGSIS5XKym6hU+rmNZr2r9OGuUrQvcdXEyalNIlK6UGlTs2RqO5YTy6VtLMKuBmahv69/5Le/++3/rmazpi4zYgXBGiGpHcxI8Q7CqsTqmWee2RiPUOpi3blzp6bfaTvpkpytbDani1chX9AEK3Mg0TqooO2HvSJOu+FwOHRxkrnT5dRFqkWeM8HdidtF5gCMjiS9h29/MLK4tPhxvfMUEaydmdDkiiszMCsVJyA/9dRTulxtSEpRrmZnZ+v+JaWrr1y8/KrjMfkSVovitKqLmCY0hcKu3Y4NPdDtkutUEqaSQJWESv9/FijxsLi0xJ2EYDpGL78c+dF7703E4vHrCFbjiWhydYPNEKzOhQsX1JkzZ5oiV5XKl7Bb159chebKrkRXt0Sxcmu5mt5Rt95dt/nwpvmeNuU3XheRsgOrTYgYAtSCv3n11Rv/9M8/fC6xkjDl3bBmFSzJuyKpHczOngcNiVwZVa6qFZ7yO+aakYclXZsZZAPAVJw8cULysT4zYz6WWcs0jJF3BRZg1wOG5FydP3/e9HJlFOxacNTtdlELC0zLxYsXokePHp0wY30sMwqWDOI8xWYHVkfkyuPxIFc1wkoFDKthZWWFAZ/B1HzzhRcmOwOBCIJVX6KKrkGwCVvvFkSuDoZRKro3QSwZlxVMz9HeoyNer9dU27LZBGuMQZzBDvT19enRK+SqhoLlctvyd7tcboYPA9MjpRuOH/vKuJki0WYSrElKMoBdkAKiyFUdJMvtphEATMrzz4+Eu7u6TeMBZhGsqDZNsHmBxdg1soBc1R475mE5nS1R1jxYhSOHD4+ZpavQLII1TtcgWJAdt+lPP/0UuaoDrTbsJjxy+MgvWfNgFfS7Cnt6b5nhYskMgsVdg2BJrl27FqEVGovdEt27u7plxnYGluIv//IvbgQ7g4bPLTS6YMkV/jibE1gYEpAbiN26CLu7uqLaFT/bGFiO3p6eca/Xi2AdgAkKioLFuU0TNA673UnY3t5B7ipYEu3CIdIV7AojWPsjqsnVJJsRWBy6vxuMXaJYwWBw+pVvjYVZ42BVuoLB8YA/YNj8bCMLFgVFwfJcu3Ytqs24kGggLhsIltvtjh3uPjTC2gYrI7Wxent6DJvwblTBmqLmFdgI6caJ1vpN19bWVDqTVtlclhbeLB9N/w6FQkHlcjl9HdVBIGPZbHbojddfj7K2weoMDz93ozPQacht3aiCRWI72IZr165JiLvm0Qa5qmttbdVP4vHEslqILan5xQX9cWJlRSVTKZVZXbWdgLU46n/YKwmUTKl0Wp8SiRW1svJQn6TdW1paat5dKXIV8AeG3rk5SWI72Iajvb3jRiwibMR7lidJbAcbStZ0KBSSbvH3ay0TXo9Xn4R8Ia+y2Zxa1U7wyVRSk6ucyufzG8vLQarF4VAO7eRfXjNKRO3RMq6GSEq9KP8t1SCyVGJNa7NSu+XXHj3OaTIrclUuudIl6dLarK3NV9f8L5/XG/N5fUM3rl9HrsBWXLx4YSp8+4PI3PzcIIK1M3Ilz10vYFfJCmuSpWotWVuFy6MJhkx+1bEuC5oUSBRLxCuzmtmQrrT2rxJKUvb4cy01FZyDIr+z9FslorRJnrK5x5bP5nJVvb8eMZTf7WxRbpdL/9uxpV3qRaDDH/V3dIyIqLMngR05cvjwRDL5cPBhMolg7cAtKrYDklVfydpODGTyetSGdJUiXSIjupRks3p0ZrucIXltK9IFZmRSqfSB2kuEUqJS0s3nKrZfM5DP7eoMRjRhHil2NQPYEinbcOfDDyOaYA0iWI8jBwfupgIk65Fk3dSmYDO+Q3mkayd5km7GdRHLmkKqypHIUnlX3tbXSncaikSV/pa5ke5W6mhvV+1tbePf/c53OW4CaAT8gYn2tiXDRLGMJFhErwA2S5Z093ykTQNG+m4l6fLs0NUnUa98vqAJzHoUTMitbb5jrhkyVv59RU7kOwnSnVcSKzPUyJLv2OkPRHxe7zhdggCPkCjWT376s7AmWKMI1iOIXgE8LlmS+H5OrXcXDpvle5dXS5dux0oQ+crVsGTBXt12ksSfTqdNtT1Id2S7ry0W8PsntG2D4yXANnQFgxPLy/FRI0SxjHIrENErgO0lK6ZNUsJhpHghYklEhkpdkrWY9opEtZpsyJw2n091B7smNLk6hVwB7MzFixeiXV1dEUNcFBngOxC9AthbtGRInVPsK/ZCxKrn0OFwV2fw1PfffvsGiewAe7Oei9WGYGlXmmGiVwAVSZZEs8aLohWmRfZPs0pFVIrUtDpy6NCkiNX3vve9seKQSgBQAfpA0AaIYjU9B2ttbe0WmwNAVaIlJ9uxUCgkNeOua9MorWJ+JMeq1e2Otre13/J6PGGiVQD7R6JYbvfs4HZlZGwhWC6XKzL68mWuzAAOLlpXiqIVpGX2RqrRG4X1GmSesM/ru/39t9+OsHYADo5EsT748Y+nZ2Znz9pSsOSAwmYAUBPRGi+K1nBRts7SMjvT7KF+JFqlMdXR1n7X39ExRbQKoPYc6j50a35h4f16DKpuaMFyu92xb77wQphNAKBmoiUnadmnpIbWQFG0RLgGaJ3tJad8HMZGSZWzpeVuz+EjSBVAnbl48UL4/XD4piZZTYnsN02wJLmd1Q9QN9mKajNJiJfIlkSzLiNbWy7yXK5GFDyNejyeSCaTuTv59/8wRasDNJaO9g6JYl23jWBJeL6rs4vkdoDGyJZU+54uytZAUbSe1qZBRc5WTfH5fMrZ4ozkC/m7Ab8/8p2//TsqrQM0kba2trDf77+eSCTsIVitra3TUgyMVQ/QcNmS/W6yOKlidGvQjsLldrsPHMEKBAIxl9MlEvVJd1dX5I3XX4+wlQEYB3GN8O0PwppgjdpCsHxeH9ErAGMIVym6VRKugaJoPanWE+XPWlW6qkl0d7lcciWsy1Rrq3u6o73jl1994qtyoUiECsDgHDl8+HYsHhttdMmGhguW0+mMeb1echEAjClcUbWliGlRukri1V98bEnx8vv9Mkbh9KHu7lg6nZkOBAIPent6p7u7ukSmSEoHMCFSsuGHP3ovGs/GBywtWJ5WzxQHKgDTSZdMka2vafI1WHxYmj9ZJl6DBvspEm0qHXs+kfpTHe0d0ZWHK9GvPfFVVYxIcWwCsCBdweDt+HK8ocnuDRcsal8BWEq+StIV2W25MhFTRQHbqU5XuaDthMjegwokSv+bcggAIMnuXq/3ejqdtqZgud3u6MjIcIRVDWBbEStBmgAANAxJdv/he+9NaYI13KjPbGg5Y6fTyUEVAAAAGo6/o+NuIz+voYLldrm5exAAAAAaTsAfmPJ6vdYTLJfLNf3NF16IsooBAACg0chNLB6Pp2E9aY2LYBUUye0AAADQNFocjoa5SMMEK7eWI/8KAAAAmsaxo8ciMoqDZQTLtbo6/eq3XomyagEAAKBZSDehs6WlIQGfhghWeyweYbUCAABAsyko1ZC7CRsiWN+I/NtdVikAAAA0m0wmY50IFgAAAIAReOvq1YaM7oBgAQAAACBYAAAAAAgWAAAAAIIFAAAAAAgWAAAAAIIFAAAAgGABAAAAAIIFAAAAgGABAAAAIFgAAAAAgGABAACAvfH5oggWAAAAQA1xp1I1Fyx3oRBFsAAAAMC2ZJW6W+v3dCn1CYIFAAAAtuX42tqUs7ZyFft6Nju1m2B9UqffMs3qBAAAACPw9f/6NOosFCZr9X7ae93q/vVnsd0Ea6oOvyOy9UMBAAAAmsmqwzGhahMAmh6a/sWNrU9uEixNhOSDIjX+DROsRgAAADASf/7Zv0vwZ0ybDhIEEm8a2u6F7XKwxmv4/SV6FWE1AgAAgAElSwTplNpfcEn+z1BR1B7Dsd2Ti396blSbvX/A7x3VpnN0DwIAAIDR+ddzfybuc12bBnZbzqX5jbtQmHh6+hfh3ZZz7PTCASVLjHCs2OUIAAAAYBbROuspFIbzSj2ZdTiC8pwmVLEWpX6ZcTimilGvPXHs9qImWYNFyRqo4ruJ0Y0TuQIAAAC74qhkoWI064o2nd1hEZEpuQPxNjlXAAAAgGBVgSZawaJkDRQnkakYXYEAAAAAAAAAAAAAAAAAAAAAAAAAAAAAAAAAAAAAAAAAAAAAAABQJf8vwABBXiAvS0sc0gAAAABJRU5ErkJggg==;rotation=30;" vertex="1" parent="1">
          <mxGeometry x="370" y="380" width="99.83" height="145" as="geometry" />
        </mxCell>
        <mxCell id="upiH7xowOFizbXPELO3x-2" value="" style="shape=image;imageAspect=0;aspect=fixed;verticalLabelPosition=bottom;verticalAlign=top;image=data:image/png,iVBORw0KGgoAAAANSUhEUgAAAgAAAAIACAYAAAD0eNT6AAAABHNCSVQICAgIfAhkiAAAAAlwSFlzAAB6LwAAei8BH/37yQAAABl0RVh0U29mdHdhcmUAd3d3Lmlua3NjYXBlLm9yZ5vuPBoAABqFSURBVHja7d0LkF11fQfwE0hIghBeiytIdFhRilLXR1mUolCna8EHJAG1ZXzh+4GjkqBFKK0VpYNVOnRGkaogjG/EYFSsq9b6qq5auxZQVFaBkLCwEJBHQl7b3797U2JKwubuuXfP/5zPZ+Y3h85YOPv/393v95579uysiYmJAgC6aXyod884nBRzSsxTYu6JWR1zUcxnegbHNlqlzpqlAADQxeCfHYfXx7w7Zr/t/M9uiHlOlICbrJgCAED+4X9cHD4Q88Qp/M+vjzk6SsC4leuM2ZYAgA4H/2Fx+GDMcTvx/3ZozGUxz7OCrgAAkFfwp0v86VL/66fxhnNxz+DYcqupAABQ/eCfE4fTYs6J2Xua/7obYw6LErDWypZrF0sAQInhf0Icri0mL/nvXcK/8rEx77KyrgAAUM3gf3IcLoh5Tgf+9Q/EHN4zOPYbK10eNwECMJ3g743De2JeXXTuqvLcmAsLNwS6AgDAjAd/CuW3xZwVs2eX/rNuCFQAAJjB8D85DufHHNzl/7QbAkvkJkAAphr8T4/5bvzj52cg/BM3BLoCAEAXg//AOLwv5uUpN2b4dNwQWBI3AQKwveCfH4dlMe+MeURFTivde/DPMcfbIVcAACg3+NO7/PRX+s6LWVjR03RDoAIAQInh/8xi8vf5j6z4qaYbAp8YJeB+u9YeNwECkIL/MTGfin/8QQbhn7gh0BUApmN0oD99nnZATLrJ51Exu1mV7Uo3H90Zc8eWY9/wyAOWhcyDf484/HXM0ph5GX5P/nHP4Niv7aQCwP8P+PRZ3p+0Gv2WoN8y6f/ezypNy/2tQjAa88MtE8XgVktDxYM/XQF+Rcx7Wz8LcvW1KABuCFQAaIV+ehf/ZzGLYk5ohT3ddWOrDKTLqVdGIVhpSahQ+D+7mPyc/2k1+ZKWRAn4op1VAJoa+nsVk8/JPrGY/PWYBValMjbHfCPm4zFXRRlYZ0mYoeDvi8P7U2DWsHC7IVABaFzwp7B/e8yxMXOsSOWtifl0zCVRBH5iOehS8Kc3BGfHvLWo730+740CcLbdVgCaEPxHFJPP4j7WamQrPVL1jCgCP7IUdDD8XxeHc2P2r/mXmm4I7IsSsMquKwB1Df5Dismbdl5UzPwjOSnH52LOjCIwaikoOfyfEIfrG/QlL40C8EE7PzWeA5BP8D8yJj3+8rqYFwv/Wkn7+YvY3wti/FYGZTqpYV/vX9pyBaBOwT8v5pz4x/SHL04rfM5fV+lz2belfY79frnlQAFoS48tnzofAVQ7/NOv7y2POcJqNM6lMW/uGx5xVzNtGR/qTU/K+13Dvuyf9wyO9dt9VwByD//08J4fC//GemXa/3gdPMlS0KYlDfyar7HtCkDu4Z8+x/pO4QE+TffEVgl4laWgDSc18Gs+37ZPnY8AqhX86ca+98ScZTXYxsUxb+wbHtlsKXg440O96dG+txTNuln4kp7BMWXZFYAsw/8RcfiC8Gc70u9yfzReJ75nmYrFDQv/D8W8xrYrADmGf2rr329908L2nKoEMEVNufyfHvpzarzzf3OMq2M7yUcAMx/+6c9vps/73ezHVF2S3u34OICHMj7Um54lMRaza42/zPTbMelvGrw/gv8+u96e2ZZgxn1M+NPGlYBUHpUAHsqJNQ7/9Hq/LObsCP5bbLUCkPO7/3fF4RQrQZsl4NaYd1kKtlHXy//fjjk9gv9ntrgcPgKYufBfFIcrC4/0pX3pm/f5fcMjV1sKktZf/bu9qNdf/PtVzBkR/F+yw+VyM9HMhP+T43C58Ge6BT7msng9HWQpaHlhjcL/jmLyzxcfLvwVgLqEf/qTnOnFvIfVoATp2eefjdeVj/NI6nD5f31M+ot+h0TwXxizwbZ2hh8a3Q3/dGNOuuz/WKtBiY6KeV/MOyxFc40P9e4eh+My/zLSs1DeGaF/gx11BaBu0o1bR1sGOmBZFMy/sAyNdnzM/EzPPf3dk2dF8J8s/BWAOr77T+383VaCDkn3A1zQuspEM+V4+f/mmJfGHBnB/z1b2F0+AuietxX+uA+ddVjRelqgpWiW8aHeuXF4QUanfE/MP6TSGsG/1g7O0LsGvwbYlXf/6clcozELrAYdlh6O8vi+4RE/VJtVAFL4r8jgVDfFfDzmbyL4x+ycKwBNcLbwp0seXUxebTrPUjRKDpf/vx6zNIL/GtvlCkBT3v0fHIdfFvV6MAfVdnfM4/qGR+6wFI1495/eyKV30/tW9BSvjVkWwf81u1UtbgLsvHOFP122V8yZlqExjq1o+N8W88aYfuGvADTx3f9T4/BXVoIZ8IZ4/e1rGRqhapf/1xWTN/g9PoL/ophNtqia3APQWa8uPO6XmfGI1ruv91qK+hof6k1v4hZX5HTS58mfiTkzQv9Gu+MKQNOdYAmYQaeNDvTPtQy19qcxvRU4j/Qgn2dG8J8i/BWAxosfvE+Lw0IrwQx6VDH5kBXqqyqX/18Twf8j26EAMGmRJaAClkYZ9TFUfS2pwDmsjPD/ua1QAHjQiZaACkhPB3y+Zaif8aHeI4pqXGX8qt3Ik5sAO6D1u/9PrtGXtDmmKX+Sc04Ni/EZMV/2nVk7Vbn8/xVboQBQj3f/v4pZHvP9mNUxq2LG+oZHNjakvKWb5h4X84St5kkxz8j4y3p2fF1HxB7+2LemAlCyB2K+aSsUAPItAPfGXBjzyQiJ65q8cfH1px9o17Vm62LwlDicVUx+5prjFYJlMS/xrVkP40O96QrjIRU4lW/3DI7dZ0fy5B6A8t9BpoevPCuT002X9T+UfpBE8J3V9PB/mGLwXzEval0NuCwmtysiJ7U+msK7/zL5/F8BYCuHxuTwN9l/E/PUCLU3x/irXFMvAr+MeUUxeY9HTr/vnF6Tb7eDtbGkIufh838FgK0cmME5fiNmIILsWtvVdhH4RRyOivnvjE77VR4PnL/xod50X8rhFTiV63sGx26wIwoA+RSAT8QcFwG2xlZNuwSkGySfHfPdTE55y+OByZu7/1EAFICdloLqtRFc/jhHeSXgrjg8N+ZLmZzyWzweWAEoic//FQC2cUBFz+um9IMjAmuDLSq9BKS/fpYeubs6g9NNz41/mV3L0/hQ72Pj8PQKnMo9Md+xIwoAeVwBOCWC6nbb07ESkH4gnpHJ6Xo8sHf/0zXUMzjmzYQCQAYFYHkE1PdtTcdLwCeLPO4H+KOYF9ixLLn7HwVAAZiy9Hn/mbala05rrXnVLbNVeRkf6k0fLx5VgVOZiLnajigAbGV0oH9eHPap2Gl9Nv3uut3p2lWA9FfRLs7gVNPjgQfsWFYWx1Tho5uf9QyOrbYdCgB/aP8KntMVtqXrLmi9S3IVgDL59T8UgAqr2hMA093p/2pbun4V4Ndx+FYGp7pkdKC/z45V3/hQb08cjlEAUACYqqEIo/stw4z4cCaF1eOB83BiRd5gpN8k8lclFQAy8DNLMGOuKvJ4LoDHA+ehKnf/X90zOLbZdigAVN8qSzAz+oZH0l8L/FgGp7p7zJvsWHWND/XuFYc/r8jpePqfAkAm3Kk7s9JvA+TwK4GneTxwpaVnNuxWgfNIpdY9RQoAmbjVEszoVYCbM3nH5PHA1VaVu/9/0DM4dpftUADIw3pLMOMuyuQ8PR64gsaHetNfcDyuIqfj7n8FANgJX4v5XQbn6fHA1XR8zPyKnIvP/xUAYKr6hkfSHdMXZ3K6Z9ixyqnK3f839gyOXWM7FABg56TfBsjhL6c9y+OBq2N8qDfdmFmVqzLe/SsAQBtXAW6Lw5WuArCTBmP2rMi5+PxfAQDalMvNgIs9HrgyqnL3f3qk+LdshwIAtHcV4NtxyOGvMno8cAWMD/XOjsMJFTmdf+sZHFtrV+pntiWArl4F+KcMzjM9HvjvorTcYcumbuVRh++7fuOu55Tyzmyf/efvdvR9lbjpbtNvd/v96Fn9033drojX0ze9ShQAaKpPxJxXVOfXurYnPR74jTHn2rKp2zgxZ0FRbH5rGf+uzWt2LdatWFCj1ZmVHkqmAFSMjwCgS+Id0F1x+Ewmp/uW0YH+eXYNFACgHLncDPjIwuOBQQEASrsKMByH/8zkdD0eGBQAoIFXAQ6NeaHtAgUAKMenYn6fybkus12gAAAl6BseuS8Ol2dyuunxwEfaNVAAgHJclNG5ugoACgBQ0lWA9JCX72VyuktGB/ofZ9dAAQCadRUg/ZzweGBQAICSXBEznsm5njo60L+fLQMFAJimvuGRB+JwSSanmx4P/Ca7BgoAUI6PxExkcq6neTwwKABAOVcBbojDNzI53fR44JfbNVAAgHJ8OKNzPd3jgUEBAMqxImZVJufq8cCgAABl6Bse2RiHf8nolM+wa6AAAOX4aMymTM71aI8HBgUAKOcqwMo4fNlVAEABgObJ6WbAxR4PDAoAUI6vx4xm9LPjdFsGCgAwTX3DI+mBQBdndMqv9HhgUACAcnw8Zn0m5+rxwKAAACVdBbg9Dl/I6JQ9HhgUAKAkOd0M6PHAoAAAJV0F+G4crsvolJd6PDAoAEA5LsroXJ8Qc4ItAwUAmL7LYu7P6HyX2TJQAIBp6hseuTsOn87olNPjgZ9h50ABAKbvw5mdr6sAoAAAJVwF+GkcfpLRKXs8MCgAQElyuhnQ44FBAQBKku4DuDuj8z11dKC/x7aBAgBMQ9/wSPpNgMsyOuX5hccDQxZmTUxMWIVpinc8c+LwqJinxlxVoVN7bcxv7FD2Dov5UEbnmx5n/JKYRv1wmVVM7DtRzDrHy/UhF2dFvBq+WcK/KRXi1TG3RjneYGEVgG6HfXr0aXroyfNjDo45MKbnf1/iAHRDCq7xmFUxv435SsyXohTcZmkUgLJD/zFxeFHMopijCh+dAFTN5pgfxCyP+XyUgZssiQIw3Xf76ZLe62LmWBGALKSPBy6O+XtXBRSAnQ3+PeKwtJh8sMkeVgQgS/fG/GPMB6II3Gs5FICHC//BOFwe02s1AGphLOZlUQKGLMWDfJb9h+H/9jhcLfwBaiX9TL+69TMeVwD+IPjnFpNPXHullwRArV0a84a+4ZEHFICGF4DW5/1fj3mm7wuARviPmOc2/b6ARn8EEOGffnf/cuEP0CjpZ/7lrQxQABrq3cXk7/YD0CyLWhnQWI39CCCa38lx+FzhCX4ATZUC8MV9wyNXKADNCf9D4jASs7vXP0Cjpb8v0B8loHF/N6WpHwGcJ/wBaGXBea4ANOPd/0AcfuQ1D8BWjuwbHhl2BaDezvc6B6Dp2dCoAhDv/tOf8D3G6xyAbRzTyggFoKbe5DUOgIxo0D0A0ez2jMPtMXO9xgF4COnxwPv3DY/c4wpAvRwv/AHYgbmtrGiEJhWARV7bAMiKSY34CGB0oH9OHMZjFnhtA7ADv4/p6Rse2eAKQD30CX8ApmBBKzNqrykF4ACvaQBkRvMKwIFezwDIDFcAAMAVAJsJAApAHe3n9QyAzGheAZjl9QyAzGheAQAAFAAAUAAAAAUAAFAAAAAFAABQAAAABQAAUAAAAAUAAFAAAAAFAABQAAAABQAAUAAAAAUAAFAAAAAFAABQAABAAbAEAKAAAAAKAACgAAAACgAAoAAAAAoAAKAAAAAKAACgAAAACgAAoAAAAAoAAKAAAAAKAACgAAAACgAAoAAAgAIAACgAAIACAAAoAACAAgAAKAAAgAIAACgAAIACAAAoAACAAgAAKAAAgAIAACgAAIACAAAoAACAAkBnbZ6YsAjgewgFgKb94Prd/WuLlWvXWQxoQ/reSd9DSgAKANmF/32bNhVrNmxQAqCN8E/fO+l7SAlAASC78N9CCYCdD/8tlAAUALIMfyUA2g9/JQAFgKzDXwmA9sNfCUABIOvwVwKg/fBXAlAAyDr8lQBoP/yVABQAsg5/JQDaD38lAAWArMNfCYD2w18JQAEg6/BXAhD+G6b971ECUADIMvyVAIT/9CkBKABkGf5KAMJfCUABoOLujR8ynQh/JQDhX04JuLeD358oADTYgtmzi4Pmz+vof0MJQPi3J31vpu9RUADoiH3mzFECoILhn743QQFACQDhDwoASgAIf1AAyKwE3KIEkJlbhD8KAErA9N2pBJBZ+N8p/FEAUAKUAIS/8EcBQAlQAhD+wh8FACVACUD4C38UAJQAJQDhL/xRAFAClACEv/BHAUAJUAIQ/qAAoAT8XwlYpwTQ5fBfJ/xRAGDmS8B6JYAuh/964Y8CAEoAwl/4owCAEoDwF/4oAKAEIPyFPwoAKAEIf+GPAoASoAQg/IU/CgBKgBKA8AcFACVACUD4gwKAEqAEIPxBAUAJUAIQ/qAAoAQoAQh/UABQApQAhD8oACgBSgDCHxQAlAAlAOGPAmAJUAIQ/sIfBQCUAIS/8EcBACUA4S/8UQBACUD4C38UAFACEP7CHwUAlACEPygAoAQg/EEBgBJLwEIlgIqE/0LhjwIA3bO3EkBFwn9v4Y8CAEoAwh8UAFACEP6gAIASgPAHBQCUAIQ/KACgBCD8QQEAJQDhDwoAKAEIf1AAQAlA+IMCAEqA8Bf+oADADJSAVUpA16wS/lCK2ZaAJpSA5Oa1nQvpOyKQ7uhwKNEdwh9XAMCVAIQ/KACgBCD8QQEAJQDhDwoAKAEIf1AAQAlA+EOl+S0AGl0CkpVr1xUTlqNRZsUcJPxxBQCaXQJSEMyyFMIfFABQAhD+oACAEoDwBwUAlACEPygAoAQg/EEBgHqUgEfOnWshaiLtpfAHBQCmZM4urgHYS1AAAAAFAABQAAAABQAAUAAAAAUAAFAAAAAFAABQAAAABQAAUAAAAAUAAFAAAAAFAABQAABAAQAAFAAAQAEAABQAAEABAAAUAABAAQAAFAAAQAEAABQAAEABAAAUAABAAQAAFAAAQAEAABQAAEABAAAUAABQAAAABQAAUAAAAAUAAFAAAAAFAABQAAAABQAAUAAAAAUAAFAAAAAFAABQAAAABQAAUAAAAAUAAFAAAEABAAAUAABAAQAAFAAAQAEAABQAAEABAAAUAABAAQAAFAAAQAEAABQAAEABAAAUAABAAQAAFAAAQAEAAAUAAFAAAAAFAABQAAAABQAAUAAAAAUAAFAAAAAFAABQAAAABQAAUAAAAAUAAFAAAAAFAABQAAAABQAAFAAAQAEAABQAAEABAAAUAKih+zZusgj2EhQAaJJb1q0r1mzYYCFqIu1l2lNAAYAdhv+d64V/3aQ9VQJAAQDhrwSAAmAJQPgrAaAAgPBHCQAFAIQ/SgAoACD8UQJAAQDhjxIACgAIf5QAUABA+KMEgAIAwh8lACpjtiVA+E/frJjdd93VQnfB/Zs2FRMdLAHJo+fNs9AoACD8Hz78D5o/r9h7zhyL3QV3bdhQrFy7TgmAafIRAMJf+GclrXVa81kd/G/4OAAFAIS/8FcCQAEA4S/8lQBQAED4owSAAgD1D/9C+Fe2BHSSEoACAA0P/4XCv7IlYKESAAoAwl/4KwFKACgACH/hrwQoAaAAIPyFvxKgBIACgPAX/kqAEoACAMJf+CsBSgAKAAh/lAAlAAUAhD9KgBKAAgDCHyVACUABAOGPEqAEoACA8EcJAAUAhD9KACgAIPxRAkABAOGPEgAKAMJf+KMEgAJAg8J/rfCnpiVgrRKAAgDbD/8Nwp+aloANSgAKAAh/lABQABD+wh8lABQAhH/JDhL+7GQJOEgJQAGA/MN/H+HPTtpHCUABAOGPEqAEoACA8EcJUAJQAED4owQoASgAsEMrhT9KwA5LwEolAAWAOob/GuGPErBDa5QAFACEv/BHCQAFAOEv/FECQAFA+At/lABQABD+oASAAoDwByUAFACEPygBoAAg/EEJAAUA4Q9KAAoACH9QAlAAQPiDEoACAMIflAAUAIS/8AclAAUA4S/8QQlAAUD4C39QAlAAqIO7N2wU/lDhEpC+R0EBoHR7zZld9Oy2m/CHCpaA9L2ZvkdBAaAjDpg3tyMlQPijBEwv/NP3JigAZFUChD9KgPBHAaBhJUD4owQIfxQAGlYChD9KQPslQPijAJBlCRD+0H4JEP4oAGRZAoQ/tF8ChD8KAFmWAOEP7ZcA4Y8CQJYlQPhD+yVA+KMAkGUJEP7QfgkQ/igAZFkChD+0XwKEP53iuZF0rAQk83bdRfhDGyUgWbdps/BHASDfEgC0WQJ0ZzrIRwAAoAAAAAoAAKAAAAAKAACgAAAACgAAoAAAAAoAAKAAAAAKAACgAAAACgAAoAAAAAoAAKAAAAAKAACgAACAAgAAKAAAgAIAACgAAIACAAAoAACAAgAAKAAAgAIAACgAAIACAAAoAACAAgAAKAAAgAIAACgAAIACAAAKAACgAAAACgAAoAAAAAoAAKAAAAAKAACgAAAACgAAoAAAAAoAAKAAAAAKAACgAAAACgAAoAAAAAoAACgAAIACAAAoAHWwyVYDIDOaVwBu83oGQGY0rwCs8noGQGYoAACwPasVAJsJgCsACoDNBEBm1MOsiYmJRuzm6ED/TXFY6HUNwA7c3Dc88hhXAOpludc1ALJCAQAABaABvhNzp9c2ANtxZysrFIA66Rse2RiHFV7fAGzHilZWKAA19P6YzV7jAGxjcysjGqNRBSCa3bVxuNTrHIBtXNrKCAWgxv42Zq3XOgAta1vZ0CiNKwDR8FbG4UKvdwBaLmxlgwLQAOfFjHrNAzTeaCsTGqeRBSCa3t1xODHmXq99gMZKGXBiKxMUgAaVgGvi8NKYCd8DAI2Tfva/tJUFjbRLk3c/Nv6qOJzj+wCgcc5pZUBjNeaPAe3I6ED/B+Jwuu8HgEb4YIT/0qYvggLwYAl4RRw+EjPXagDU0gMxr4/w/4SlUAC2LQHPiMOVMQdYDYBaWR2zJML/h5Zi0i6W4EGtF8YRMV+xGgC1kX6mHyH8XQGY6tWAY+JwfsyA1QDI0nDMOyL4/91SKADtFIGT43BuzKFWAyAL18ecHcF/haVQAMooAk+Pw6KYxTFPsiIAlZL+kM8XY5ZH8P/UcigAnSoDj4/D82IOjjmwmLxpcMtxvhUC6Ij0R3vSzXyrtjr+NuarEfq/tjw7538AHCkVp47nAQAAAAAASUVORK5CYII=;flipH=1;rotation=-30;" vertex="1" parent="1">
          <mxGeometry x="540" y="417.5" width="70" height="70" as="geometry" />
        </mxCell>
      </root>
    </mxGraphModel>
  </diagram>
</mxfile>
